<?xml version="1.0" standalone="no"?>
<!DOCTYPE svg PUBLIC "-//W3C//DTD SVG 1.1//EN" "http://www.w3.org/Graphics/SVG/1.1/DTD/svg11.dtd" >
<svg xmlns="http://www.w3.org/2000/svg">
<metadata></metadata>
<defs>
<font id="architects_daughterregular" horiz-adv-x="388" >
<font-face units-per-em="2048" ascent="1638" descent="-410" />
<missing-glyph horiz-adv-x="1024" />
<glyph horiz-adv-x="0" />
<glyph unicode="&#xd;" horiz-adv-x="1730" />
<glyph unicode=" "  horiz-adv-x="1024" />
<glyph unicode="&#x09;" horiz-adv-x="1024" />
<glyph unicode="&#xa0;" horiz-adv-x="1024" />
<glyph unicode="!" horiz-adv-x="294" d="M55 44q-9 26 9 63t78 79q22 14 45 11t42 -15t31 -30t12 -36q-16 -54 -49 -83t-67 -35t-63 7t-38 39zM60 478v242t1 192t1 168t1 168t1 193v245q40 36 69 42t48 -4t32 -28t19 -30l-4 -1188q-16 -34 -41 -42t-51 -3t-47 19t-29 26z" />
<glyph unicode="&#x22;" horiz-adv-x="606" d="M136 1451q0 35 1 59t1 26q0 32 -2 83t4 105t24 100t60 66l42 -40v-498l42 -84q-4 -4 -16 -11t-25 -14t-25 -12t-18 -5q-28 0 -44 22t-26 56t-14 73t-4 74zM366 1637q-2 51 4 105t25 100t59 66l44 -40v-498l40 -84q-4 -4 -15 -11t-24 -13t-26 -11t-19 -5q-26 0 -43 22 t-26 56t-13 73t-5 73t0 58t1 26q0 32 -2 83z" />
<glyph unicode="#" horiz-adv-x="1630" d="M17 1066q9 34 49 56q18 4 63 11t96 14t96 13t63 6v322q0 20 11 30t26 15t30 6t25 1t26 -1t30 -6t24 -15t10 -30v-304l274 30v368h178l34 -356l498 -12q32 -44 22 -68t-46 -35t-94 -14t-122 -5t-130 -8t-118 -22l6 -254q82 0 137 4t105 10t106 10t138 4v-58q0 -28 -31 -47 t-79 -30t-106 -17t-112 -9t-97 -6t-61 -9q-4 -88 2 -175t-1 -155t-41 -110t-118 -42l-30 426q-50 2 -101 4t-93 -1t-69 -13t-29 -30q-2 -32 0 -79t1 -97t-6 -96t-22 -75t-48 -33t-83 30l-42 312l-302 8q-18 36 -9 65t36 52t66 39t78 27t74 15t53 4l-4 284q-18 0 -66 -3 t-102 -6t-102 -4t-66 3q-36 22 -27 56zM566 736l296 32l-8 302l-288 -42v-292z" />
<glyph unicode="$" horiz-adv-x="1426" d="M24 976q-14 68 9 126t68 107t107 87t127 66t126 46t105 24v580h122l80 -558h498v-104l-454 -64v-386q138 2 239 1t167 -13t99 -38t39 -74q10 -66 -16 -125t-73 -108t-108 -89t-120 -69t-109 -48t-76 -27q2 -24 9 -83t13 -125t12 -124t10 -82v-26q0 -24 -30 -37t-69 -20 t-77 -9t-54 -2l-34 494q-16 -10 -58 -17t-94 -11t-107 -5t-100 -2t-72 -1t-21 0q-6 2 -7 18t0 35t1 36t-4 21q6 14 41 23t85 16t106 11t107 6t89 4t48 4v332h-58t-120 4t-148 16t-144 35t-110 61t-44 94zM224 992q16 -66 66 -86t113 -21t130 7t115 0l-42 372q-54 18 -119 -2 t-123 -62t-98 -98t-42 -110zM838 734l16 -216q34 10 91 29t111 47t94 66t40 84q-18 26 -62 34t-98 3t-107 -19t-85 -28z" />
<glyph unicode="%" horiz-adv-x="1570" d="M106 1232q0 66 42 124t104 100t133 67t127 25q32 0 65 -5t59 -20t42 -40t16 -67q0 -60 -50 -113t-121 -92t-147 -62t-128 -23q-24 0 -49 5t-46 18t-34 33t-13 50zM286 60q0 40 46 64l848 1528q10 18 31 33t46 16t50 -19t47 -72l-916 -1612q-20 0 -46 1t-50 7t-40 18 t-16 36zM314 1272q0 -2 1 -10t1 -10l166 82v50q-22 0 -50 -8t-55 -23t-45 -36t-18 -45zM966 291q8 57 37 103t78 73t117 19q32 0 85 -2t105 -14t92 -38t50 -74q14 -74 -31 -129t-115 -92t-147 -55t-125 -18q-58 2 -93 36t-48 84t-5 107zM1108 180q54 0 102 8t85 30t59 60 t22 98q-54 0 -103 -6t-86 -27t-58 -60t-21 -103z" />
<glyph unicode="&#x26;" horiz-adv-x="1716" d="M113 90q-15 54 11 143t105 216t231 301q-52 78 -81 139t-43 116t-18 112t-4 129q8 116 59 210t124 157t154 92t151 15t115 -74t44 -174t-58 -286t-195 -410q8 -24 38 -59t70 -74t87 -76t92 -68t83 -52t60 -23q116 72 179 124t104 97t72 92t85 109q16 14 44 7t52 -26 t36 -45t-2 -48q-6 -6 -22 -38t-63 -87t-134 -131t-233 -172q120 -54 180 -83t85 -41t26 -14l1 -2q0 -22 -12 -38t-30 -27t-38 -17t-36 -6q-60 -4 -104 12t-80 38t-67 43t-67 27q-74 -34 -170 -78t-202 -82t-219 -59t-221 -9q-26 -6 -67 2t-74 36t-48 82zM339 181 q7 -33 41 -47q100 0 167 12t124 35t118 58t151 83l-370 282q-28 -26 -62 -67t-67 -88t-59 -97t-38 -94t-5 -77zM467 1293q-19 -95 2 -195t83 -174q44 30 84 82t71 114t50 130t21 129t-15 111t-59 76q-98 -28 -158 -103t-79 -170z" />
<glyph unicode="'" horiz-adv-x="414" d="M68 1096l140 440q54 18 80 3t33 -52t-3 -90t-29 -108t-43 -107t-48 -86h-130z" />
<glyph unicode="(" horiz-adv-x="762" d="M62 712q0 68 20 189t58 260t91 283t117 261t140 191t158 74q28 0 50 -5t32 -37q-96 -136 -179 -263t-146 -261t-99 -280t-36 -318q0 -126 40 -242t87 -227t87 -220t40 -223q0 -18 -10 -27t-24 -14t-28 -6t-22 -1q-70 0 -125 54t-96 137t-71 185t-48 198t-27 175t-9 117z " />
<glyph unicode=")" horiz-adv-x="900" d="M60 1836q0 56 29 73t81 17q112 0 204 -65t164 -169t125 -235t87 -263t51 -253t17 -205q0 -54 -16 -137t-47 -177t-75 -189t-100 -172t-123 -125t-143 -48q-10 0 -26 15t-16 25q42 106 106 197t124 182t103 189t43 220q0 200 -47 350t-126 273t-185 231t-226 226 q0 2 -2 16t-2 24z" />
<glyph unicode="*" horiz-adv-x="1300" d="M104 1215q-16 43 0 105q62 -2 108 -18t82 -37t66 -45t60 -41t64 -25t78 2l206 538q8 20 24 31t36 16t41 6t39 1q0 -78 -12 -149t-27 -142t-27 -143t-12 -150q66 0 125 13t118 30t118 30t123 13q0 -80 -38 -124t-94 -70t-122 -43t-122 -42t-94 -67t-38 -118q0 -52 14 -102 t30 -100t30 -100t14 -102q0 -44 -36 -61t-90 -39q-50 24 -70 77t-34 110t-33 110t-69 77q-44 -38 -84 -94t-82 -109t-92 -91t-116 -38q-10 0 -26 16t-16 26q24 44 59 109t72 139t69 150t50 142q0 2 1 10t1 12q0 36 -26 62t-64 49t-80 46t-75 55t-49 75z" />
<glyph unicode="+" horiz-adv-x="1342" d="M26 646q-2 34 32 55t88 34t117 19t119 11t96 10t48 15v414q0 18 10 27t24 14t29 6t23 1q44 0 57 -15t23 -73q4 -18 11 -66t14 -101t12 -100t7 -65h548q0 -38 -33 -61t-86 -35t-116 -15t-124 -4t-112 -3t-77 -8q-10 -60 -2 -134t20 -151t21 -154t1 -143q-12 -10 -38 -21 t-53 -16t-48 2t-27 35q-4 54 -10 123t-15 143t-24 146t-35 130q-52 0 -103 -13t-102 -28t-104 -29t-109 -16q-30 0 -56 14t-26 52z" />
<glyph unicode="," horiz-adv-x="456" d="M8 -224l176 424q16 32 35 37t47 5q18 0 36 -5t32 -16t19 -27t-3 -38q-14 -32 -36 -71t-47 -80t-50 -79t-43 -66q-6 -10 -23 -28t-41 -34t-51 -24t-51 2z" />
<glyph unicode="-" horiz-adv-x="794" d="M74 604q0 34 29 47t59 17q114 16 223 35t227 31q50 0 85 -17t46 -40t-3 -48t-60 -39l-480 -50q-16 0 -38 2t-41 9t-33 19t-14 34z" />
<glyph unicode="." horiz-adv-x="360" d="M58 33q-6 29 11 61t50 56t61 16q52 0 71 -22t19 -62q0 -30 -15 -47t-38 -25t-51 -10t-52 -2q-50 6 -56 35z" />
<glyph unicode="/" horiz-adv-x="1164" d="M52 104q4 16 49 92t117 189t163 254t186 286t186 284t165 250t121 182t55 81q10 -6 30 -8t36 -11t19 -32t-23 -67q-46 -84 -122 -217t-168 -288t-194 -321t-202 -317t-190 -273t-160 -192q-18 0 -31 14t-21 32t-12 36t-4 26z" />
<glyph unicode="0" horiz-adv-x="1562" d="M38 518q8 112 34 243t73 261t113 251t154 214t195 148t237 55q170 0 297 -70t209 -187t123 -268t41 -311q0 -210 -66 -371t-183 -271t-279 -167t-352 -57q-94 0 -201 30t-198 95t-148 165t-49 240zM228 540q0 -118 36 -195t97 -122t142 -64t169 -19q312 20 475 197 t199 517q6 332 -132 505t-428 155q-102 -6 -183 -64t-143 -148t-106 -199t-72 -216t-41 -199t-13 -148z" />
<glyph unicode="1" horiz-adv-x="328" d="M70 40q2 36 4 114t5 182t6 227t7 249t7 249t6 226t5 181t4 114q-4 56 21 71t59 15q28 0 52 -6t34 -40l-46 -1536q-2 -24 -23 -42t-47 -25t-53 -2t-41 23z" />
<glyph unicode="2" horiz-adv-x="1364" d="M80 1266q2 62 44 122t108 114t152 97t175 68t176 28t157 -21t116 -80t56 -150q0 -92 -31 -201t-82 -225t-118 -232t-137 -223t-140 -199t-128 -158q116 -10 216 5t194 37t190 43t208 21q30 0 57 -14t27 -52t-25 -66t-63 -47t-83 -30t-85 -17t-70 -8t-36 -4 q-30 -6 -112 -23t-186 -32t-214 -25t-196 -2t-132 38t-22 94q62 56 143 145t167 196t169 226t151 236t114 227t57 197t-20 146t-117 77q-108 0 -193 -48t-162 -106t-154 -106t-171 -48z" />
<glyph unicode="3" horiz-adv-x="1252" d="M34 1378q0 16 1 40t7 48t18 44t34 28q112 30 230 64t231 59t216 38t187 3t144 -47t86 -111q0 -78 -40 -150t-97 -138t-120 -123t-107 -101q182 -10 270 -64t104 -135t-30 -179t-131 -197t-200 -189t-237 -154t-240 -94t-212 -6q-30 0 -58 16t-28 58q176 32 327 98 t266 148t191 170t105 164t7 130t-104 68t-227 -21t-363 -137l-92 130q52 28 128 69t161 92t171 106t158 111t122 109t62 97t-22 76t-128 48q-116 0 -212 -26t-186 -58t-184 -58t-208 -26z" />
<glyph unicode="4" horiz-adv-x="1282" d="M34 828q100 128 196 258t185 245t169 205t148 136t121 39t89 -85t51 -236t7 -416l258 6q0 -10 1 -34t1 -50t-5 -46t-17 -22l-194 -12q-12 -32 -18 -93t-10 -138t-5 -161t0 -164t1 -147v-107q-16 0 -48 -7t-65 -12t-60 -1t-33 28l-12 750q-104 0 -188 -6t-164 -12 t-164 -12t-188 -6q-32 0 -44 28t-12 72zM296 898q120 -2 243 13t255 29v540z" />
<glyph unicode="5" horiz-adv-x="1376" d="M68 804q0 4 1 15t1 13q4 32 10 97t14 147t17 172t18 172t15 147t10 97q10 34 32 40t50 6q48 0 64 -20t17 -52t-6 -71t-7 -75q132 0 239 15t197 36t167 46t148 46t142 34t149 13q12 -18 23 -39t-5 -48t-70 -60t-172 -72t-312 -85t-490 -98l-48 -374q82 10 188 29t219 32 t223 10t199 -37t148 -109t71 -205q0 -116 -56 -210t-149 -165t-210 -122t-240 -84t-239 -48t-206 -15q-70 0 -100 16t-30 72q0 28 11 56t29 50t41 36t49 14v-48q60 0 153 4t197 18t208 41t187 74t135 116t52 169q-30 100 -93 150t-146 66t-179 6t-193 -29t-188 -37t-161 -18 h-39t-40 5t-32 19t-13 42z" />
<glyph unicode="6" horiz-adv-x="1606" d="M54 732q0 98 35 210t97 221t146 209t180 176t201 121t209 45q36 0 59 -33t19 -93q-150 -28 -284 -112t-235 -205t-160 -268t-59 -299q0 -38 18 -108t49 -138t73 -119t90 -51q40 32 92 85t116 113t139 122t159 112t177 81t193 33q44 0 78 -21t57 -55t35 -76t12 -82 q-22 -160 -98 -277t-186 -193t-244 -111t-271 -27t-264 58t-225 142t-155 227t-53 313zM656 190q92 -16 214 1t234 67t193 131t89 193q0 86 -84 86q-50 0 -112 -28t-125 -72t-126 -99t-118 -108t-98 -99t-67 -72z" />
<glyph unicode="7" horiz-adv-x="1416" d="M26 1536q0 22 9 36t35 26q176 -6 326 9t295 37t292 41t317 19q40 0 62 -23t18 -63q-74 -82 -152 -199t-150 -254t-134 -287t-102 -299t-55 -289t7 -258q-70 -22 -113 -23t-67 8t-32 22t-8 23q-14 112 5 245t56 271t88 275t103 257t97 217t73 157q-134 0 -243 -14 t-214 -28t-215 -24t-246 -2q-12 6 -22 22t-17 34t-10 36t-3 28z" />
<glyph unicode="8" horiz-adv-x="1574" d="M56 420q0 72 45 149t105 146t119 123t85 80q-22 14 -55 37t-64 52t-53 63t-22 72q0 100 40 180t104 141t147 104t170 70t170 40t149 13q122 -2 216 -35t155 -84t88 -116t18 -131t-55 -128t-132 -108q162 -88 220 -206t38 -241t-104 -242t-205 -210t-266 -144t-287 -45 q-88 0 -196 18t-204 65t-161 129t-65 208zM254 450q0 -106 51 -167t128 -91t164 -37t159 -7q128 22 246 71t208 125t144 178t54 232q-26 104 -117 153t-215 52t-262 -36t-258 -107t-204 -163t-98 -203zM418 1198q0 -84 47 -127t121 -43q44 -4 113 10t147 40t158 62t147 75 t114 81t59 80q-24 76 -97 121t-168 59t-201 -2t-199 -61t-159 -119t-82 -176z" />
<glyph unicode="9" horiz-adv-x="1320" d="M40 1196q20 78 85 156t162 148t202 118t207 68t176 0q156 -44 246 -137t128 -214t29 -263t-52 -285t-113 -277t-156 -241t-181 -177t-187 -84q-32 6 -56 38t-24 78q104 48 207 131t185 194t131 245t43 284q-60 -6 -138 -22t-168 -31t-185 -22t-187 3t-175 44t-149 102 q-50 66 -30 144zM237 1232q-17 -52 1 -110q34 -32 93 -47t132 -17t157 7t167 26t161 39t140 48q16 66 3 127t-50 109t-95 79t-132 35q-68 0 -141 -14t-143 -40t-131 -63t-103 -82t-59 -97z" />
<glyph unicode=":" horiz-adv-x="428" d="M77 825q-3 21 12 42t39 37t46 18q78 -10 104 -46t13 -66t-61 -42t-118 26q-32 10 -35 31zM192 316q0 38 34 72t72 34q48 0 69 -28t20 -60t-23 -58t-64 -24q-16 0 -34 3t-35 10t-28 20t-11 31z" />
<glyph unicode=";" horiz-adv-x="318" d="M-56 -416q52 176 89 297t62 200t39 122t22 63t10 23t4 3q40 0 55 -26t15 -58q0 -76 -9 -167t-39 -179t-89 -163t-159 -115zM66 806q4 48 31 70t58 22t57 -23t28 -67q0 -18 -10 -40t-36 -22q-14 0 -35 2t-42 8t-36 18t-15 32z" />
<glyph unicode="&#x3c;" horiz-adv-x="1218" d="M210 572q80 62 187 148t218 172t213 161t174 115q18 -2 30 -18t19 -38t6 -45t-9 -37l-588 -448q38 -18 107 -51t155 -75t179 -92t177 -106q-4 -4 -11 -21t-16 -36t-17 -36t-12 -17q-48 30 -119 58t-153 58t-167 63t-159 70t-131 80t-83 95z" />
<glyph unicode="=" horiz-adv-x="1260" d="M160 718l50 90q2 4 42 9t102 12t141 16t162 18t164 19t147 20q40 12 61 0t25 -36t-7 -51t-35 -43l-728 -98q-12 0 -31 -1t-39 2t-35 12t-19 31zM176 434q0 10 16 26t26 16q100 16 175 27t138 18t120 13t118 14t131 20t162 30q58 0 75 -37t7 -89q-142 0 -250 -20t-209 -43 t-207 -42t-242 -19q-30 0 -45 18t-15 68z" />
<glyph unicode="&#x3e;" horiz-adv-x="1208" d="M124 990l126 122q82 -58 155 -92t140 -54t131 -33t128 -30t128 -46t134 -79q-64 -78 -163 -157t-208 -161t-215 -167t-186 -173q-84 32 -110 67t-11 71t63 74t112 78t136 81t135 82t109 84t58 85z" />
<glyph unicode="?" horiz-adv-x="1294" d="M30 1598q192 62 371 85t330 12t267 -52t180 -106t69 -150t-62 -183t-216 -206t-395 -218l288 -82v-58q-22 -2 -77 -5t-123 -2t-138 8t-122 26t-77 51t-3 84q44 26 119 66t160 89t173 105t158 114t113 115t38 108t-65 95t-196 76q-90 0 -176 -13t-171 -30t-170 -30 t-171 -13q-14 0 -30 11t-31 27t-27 37t-16 39zM610 106q0 86 88 86q36 10 59 -2t35 -34t12 -51t-12 -51t-36 -34t-58 -2q-88 0 -88 88z" />
<glyph unicode="@" horiz-adv-x="2670" d="M68 518q0 162 46 313t129 283t196 241t248 187t286 121t309 43q148 0 302 -35t280 -112t206 -198t80 -291q0 -80 -35 -138t-92 -95t-129 -53t-147 -13t-145 25t-122 60q-152 -128 -270 -179t-202 -47t-131 52t-53 117t29 148t116 146t208 110t303 41q72 6 109 -12t56 -51 t28 -73t25 -74t45 -58t89 -24q38 0 72 8t61 25t43 45t16 68q-12 106 -80 193t-167 150t-216 100t-225 47q-210 0 -403 -76t-340 -213t-234 -325t-87 -410q30 -90 87 -157t128 -114t152 -78t161 -50t152 -29t128 -16q210 18 401 42t365 76t331 143t301 241q16 8 37 7t41 -9 t34 -23t16 -35q-2 -84 -63 -155t-163 -130t-232 -105t-270 -81t-278 -57t-255 -34t-201 -12t-116 10q-82 0 -185 7t-209 28t-208 57t-182 93t-128 140t-48 195zM956 796q20 -26 88 -18t146 44t149 94t97 134q-8 40 -53 48t-105 -6t-126 -46t-116 -73t-75 -88t-5 -89z" />
<glyph unicode="A" horiz-adv-x="1640" d="M40 10q16 40 45 117t66 178t79 217t86 236t87 237t79 217t64 177t44 119q16 46 22 85t19 67t40 43t85 15q94 -74 160 -179t117 -214t96 -209t97 -162q16 -24 45 -27q11 -1 23 -1q20 0 42 3q36 5 73 15t67 13t49 -6t19 -41q3 -15 3 -28q0 -23 -9 -38q-14 -24 -42 -38 t-62 -20t-63 -10t-48 -10t-15 -18q24 -74 53 -164t65 -180t78 -174t92 -144q0 -24 -21 -52t-50 -48t-56 -28t-39 6l-352 744l-682 -168q-10 -40 -30 -117t-48 -164t-62 -169t-72 -130q-7 -8 -25 -8h-8q-25 2 -51 12t-45 23q-16 11 -16 19q0 2 1 4zM472 730q72 0 144 15 t140 38t132 49t122 48q-16 36 -44 109t-65 155t-80 160t-87 124q-26 -102 -60 -198t-70 -184t-71 -168t-61 -148z" />
<glyph unicode="B" horiz-adv-x="1820" d="M44 1638q0 30 23 45t63 15q128 26 269 35q70 4 140 4t139 -4q138 -9 265 -34t227 -66t166 -98t80 -129q4 -21 4 -42q0 -37 -13 -74q-21 -58 -84 -115t-175 -113t-282 -108q244 -6 407 -31t265 -72t152 -116t66 -161q3 -14 3 -28q0 -63 -53 -124q-64 -74 -182 -140 t-278 -122t-338 -97t-362 -65t-348 -28q-6 160 -25 347t-37 392t-27 426q-3 80 -3 160q0 143 10 289q-28 0 -50 6t-22 48zM298 1544l4 -552q62 0 154 13t193 37t201 58t179 74t129 86t50 94q0 66 -79 114t-208 75t-292 28h-11q-158 0 -320 -27zM328 748l60 -584 q404 24 661 98t376 165q106 81 106 162q0 10 -2 20q-15 91 -156 148t-404 63h-38q-252 0 -603 -72z" />
<glyph unicode="C" horiz-adv-x="1812" d="M54 680q0 224 75 414t205 330t306 219t378 79q82 0 137 -10t89 -42t49 -90t15 -156q-116 108 -247 134q-54 11 -107 11q-76 0 -150 -22q-126 -37 -239 -125t-195 -207t-125 -258q-32 -105 -32 -208q0 -34 3 -67q26 -142 80 -239t133 -156t180 -84t219 -25q148 12 259 54 t204 100t178 127t179 135q18 0 37 -2t35 -9t26 -22t10 -39q-100 -96 -215 -192t-244 -171t-270 -120q-124 -40 -254 -40q-17 0 -35 1q-132 0 -255 49t-219 139t-153 215t-57 277z" />
<glyph unicode="D" horiz-adv-x="1660" d="M74 1716h34t53 -5t50 -17t29 -36q72 24 201 34q56 4 116 5q78 0 164 -8q151 -13 306 -53t282 -114t207 -188t80 -276q0 -118 -51 -229t-136 -212t-199 -190t-238 -162t-253 -127t-247 -85t-216 -37q-20 -1 -38 -1q-73 0 -122 19zM284 1492l22 -1314q82 0 197 34t240 94 t248 143t220 178t157 200t60 211q-14 122 -83 212t-172 150t-227 93t-246 43q-55 5 -108 5q-64 0 -124 -7q-110 -12 -184 -42z" />
<glyph unicode="E" horiz-adv-x="1514" d="M76 0l10 1694q52 -14 143 -17q55 -2 116 -2q41 0 84 1q109 2 228 6t226 4t195 -7t138 -25v-124q-68 -10 -186 -12t-252 -3t-268 -8t-234 -29q-18 -82 -26 -137t-11 -96q-2 -31 -2 -59v-18q1 -36 4 -77t6 -95t3 -132q128 0 249 13t240 30t239 30t246 13v-136l-956 -120 l14 -508q188 0 340 11t289 23t271 23t284 11q0 -22 -12 -53t-32 -56t-45 -38t-49 5q-138 -16 -305 -31t-338 -30t-330 -28t-279 -23z" />
<glyph unicode="F" horiz-adv-x="1772" d="M99 630q11 28 51 64t88 82q0 108 -20 212t-45 207t-45 206t-20 209q0 64 26 86t90 22q36 0 51 -13t20 -33t6 -43t7 -43t24 -33t56 -13q168 2 335 28t334 53t334 45q94 10 189 10q74 0 150 -6q2 -48 10 -83q7 -31 7 -53v-5q-1 -23 -17 -31q-8 -4 -24 -4t-40 4 q-50 -2 -133 -5t-184 -8t-214 -12t-223 -17t-210 -24t-176 -33t-122 -42t-46 -53q0 -14 2 -54t6 -90t11 -105t16 -100t21 -75t26 -30q142 0 288 24t293 54t293 54t290 24q4 0 3 -18t-3 -41t-3 -42t3 -19q-62 -34 -166 -58t-226 -41t-249 -31t-235 -31t-186 -39t-100 -54 l-28 -624q-16 -16 -37 -21q-18 -4 -36 -4h-8q-23 1 -48 3t-49 2v562q-90 12 -119 32q-21 14 -21 33q0 7 3 15z" />
<glyph unicode="G" horiz-adv-x="1772" d="M54 482q6 134 46 278t108 281t163 260t215 213t261 141q126 46 268 46q16 0 33 -1q64 -14 78 -51q4 -10 4 -19q0 -28 -30 -56q-202 -10 -373 -98t-297 -233t-197 -336t-71 -405q0 -84 27 -148t74 -106t113 -64t144 -22h10q31 0 76 10q52 12 114 35t129 57t127 77t108 94 t76 109v370h-11q-25 0 -67 -6q-52 -8 -117 -20t-135 -27t-135 -29t-118 -25t-81 -15q-14 6 -31 15t-19 26t21 45t89 72q4 2 54 11t127 21t171 27t187 29t176 26t137 20q26 -4 63 2q28 4 54 4h17q34 -2 56 -19q19 -14 19 -54q0 -7 -1 -15l-208 -84q-18 -60 -28 -141t-14 -173 t-4 -190t1 -193t2 -183t1 -160q-14 -8 -48 -19t-71 -16q-17 -2 -32 -2q-19 0 -36 3q-31 6 -39 34v458q-72 -50 -156 -109t-175 -109t-186 -83t-191 -33t-183 39t-153 105t-104 153t-38 183z" />
<glyph unicode="H" horiz-adv-x="1484" d="M52 724q0 26 19 52t42 53t43 58t24 67q2 26 5 81t6 125t7 147t6 147t4 125t2 81q14 16 39 31t51 21q10 2 20 2q15 0 29 -5q23 -9 35 -43l-12 -752q8 2 56 2t118 1t155 5t165 13t146 23t102 38l8 676q6 16 29 25t53 13t59 4t45 -2q0 -46 2 -135t6 -199t7 -231t7 -231 t7 -199t5 -135q4 -66 10 -136t19 -139t34 -135t53 -124q-58 -58 -114 -71q-14 -3 -29 -3q-46 0 -105 30q-36 86 -58 186t-34 203t-17 204t-7 191q-104 2 -188 3h-24q-72 0 -140 -5q-80 -6 -165 -25t-189 -55q-6 -72 -9 -161q-2 -44 -1.5 -89.5t1.5 -92.5q3 -93 12 -185 t27 -174l-188 -20l-90 680q-36 6 -62 18t-26 42z" />
<glyph unicode="I" horiz-adv-x="320" d="M62 620q0 142 2 286t6 280t7 240t5 168t2 66q30 18 53 30t53 12q18 0 39 -8t21 -34l12 -1620q0 -26 -21 -34t-39 -8q-30 0 -53 12t-53 30q-14 30 -21 115t-10 204t-3 261z" />
<glyph unicode="J" horiz-adv-x="1356" d="M22 456q0 30 15 61t38 58t51 44t56 17q2 -94 37 -166t95 -124t137 -85t162 -50t172 -20q20 -1 40 -1q65 0 125 8q46 18 73 89t40 177t17 236q3 87 3 175q0 44 -1 89q-2 134 -5 261t-4 229v28q0 83 5 139q6 65 22 75h168q0 -30 5 -109t10 -190t8 -245q1 -67 1 -135 t-1 -137q-3 -138 -15 -274t-38 -250t-67 -197t-103 -119q-58 -32 -153 -39q-30 -2 -62 -2q-68 0 -143 10q-110 15 -225 52t-212 93t-165 132t-86 170z" />
<glyph unicode="K" horiz-adv-x="1484" d="M40 58q10 30 15 109t7 189t3 243t2 270t4 269t10 240t20 184t35 102q6 24 29 36t51 17t54 5h36q-2 -52 -3 -144t-3 -192t-5 -195t-5 -153q108 56 212 127t200 146t183 146t164 128t142 91t115 34q26 0 45 -20t19 -46q0 -52 -80 -125t-200 -156t-260 -171t-260 -168 t-200 -147t-80 -109q44 -28 148 -74t234 -104t268 -125t253 -133t188 -130q71 -62 71 -115q0 -23 -10 -34t-23 -17t-27 -8t-22 -2q-70 20 -170 81t-236 138t-309 157t-385 138v-500q-6 -10 -46 -22t-85 -16q-12 -1 -23 -1q-31 0 -55 8t-24 31q0 8 3 18z" />
<glyph unicode="L" horiz-adv-x="1492" d="M78 22q22 86 34 226t19 305t8 340q0 88 0.5 170.5t-0.5 160.5q-1 156 -2 278t-1 182q58 32 103 37h9q41 0 88 -43l-24 -1466l1072 -22q42 -12 56 -44q8 -17 8 -34q0 -15 -6 -30q-12 -32 -51 -52q-24 -12 -58 -12q-20 0 -43 4h-1212z" />
<glyph unicode="M" horiz-adv-x="2058" d="M68 90q8 78 24 207t33 278t36 303t34 285t26 221t15 112q8 56 18 96t30 66t54 37t90 11q76 -38 141 -118t121 -181t106 -212t95 -210t88 -174t85 -105l512 988q46 34 84 34q18 0 34 -8q50 -24 89 -103t66 -201t48 -266t37 -299t31 -299t31 -268t36 -206q1 -8 1 -15 q0 -35 -25 -54q-30 -23 -70 -26q-7 -1 -14 -1q-32 0 -62 12q-36 14 -42 42q-4 36 -17 142t-30 248t-36 300t-36 300t-31 248t-18 142q-12 -16 -20 -39t-24 -68t-46 -119t-87 -189t-146 -279t-221 -390q-14 -28 -39 -37t-54 8t-60 64t-55 131l-460 978q-16 -30 -30 -96 t-26 -151t-22 -182t-18 -190t-14 -176t-10 -141q-11 -64 -11 -129q0 -33 3 -66q6 -72 5 -133v-45q-3 -79 -36 -126q-27 -39 -99 -39q-15 0 -32 2q-42 0 -64 21q-19 18 -19 52q0 6 1 13z" />
<glyph unicode="N" horiz-adv-x="1558" d="M62 66q12 102 19 231t10 271q2 106 2 218v74q-1 150 -3 292t-5 271t-7 231q34 46 66 61q11 5 23 5q25 0 58 -20q49 -30 124 -112t194 -230t292 -370t417 -530l-4 1158q26 50 54 69t74 19q42 0 60 -31t24 -73q4 -28 4 -56q0 -14 -1 -28q-3 -42 -3 -64q0 -80 6 -205 t13 -271t12 -300t5 -290t-8 -241t-30 -153l-182 16q-94 164 -218 327t-255 326t-260 326t-233 329q-12 -148 -14 -323t-3 -351t-5 -337t-20 -279q-34 -30 -61 -38t-65 -8q-36 0 -60 13q-21 11 -21 57q0 7 1 16z" />
<glyph unicode="O" horiz-adv-x="1682" d="M56 748q-2 28 -2 55q0 148 46 295q54 174 157 312t249 221q136 77 298 77h24q21 1 42 1q124 0 247 -50q143 -59 258 -174t189 -278t80 -361q0 -412 -197 -611t-599 -199q-170 0 -315 40t-251 125t-166 220t-60 327zM260 788q0 -298 149 -444t445 -146q148 0 261 45 t189 128t115 198t39 255q-6 164 -57 295t-135 224t-194 143t-236 50h-18q-73 0 -141 -29q-77 -33 -142 -89t-119 -132t-90 -160t-54 -171q-14 -65 -14 -127q0 -20 2 -40z" />
<glyph unicode="P" horiz-adv-x="1632" d="M92 564v174q14 190 20 334t27 250t66 177t134 114t233 61t364 18q30 0 90 -4t132 -16t148 -32t139 -52t103 -78t40 -108q0 -136 -71 -237t-185 -175t-256 -122t-285 -76t-272 -39t-217 -11l-8 -716q0 -18 -26 -24t-61 -6t-67 3t-44 1q0 72 -1 167t-2 197t-1 200z M310 1038v-14q0 -37 9 -66q11 -34 39 -51q16 -10 41 -10q17 0 39 5q58 0 152 7t199 24t211 48t191 78t139 112t54 153q-14 64 -65 109t-126 71t-165 35q-54 5 -109 5q-37 0 -74 -2q-93 -6 -181 -26t-158 -53t-114 -78t-50 -99q-2 -26 -10 -68t-14 -88t-8 -92z" />
<glyph unicode="Q" horiz-adv-x="1826" d="M68 578q0 128 25 262t75 259t122 235t167 192t211 130t252 48q26 1 50 1q166 0 289 -58q141 -67 230 -182t128 -265q35 -136 35 -277v-29q-4 -156 -49 -304t-123 -258q80 -80 148 -119t97 -59q16 -11 16 -20q0 -7 -10 -12q-23 -12 -125 -38l-216 110q-56 -52 -137 -91 t-173 -65t-188 -36q-60 -6 -115 -6q-33 0 -65 2q-120 0 -235 44t-206 122t-147 184t-56 230zM250 626q8 -122 63 -212t138 -148t187 -85q91 -24 183 -24q13 0 27 1q106 4 206 37t178 95l-456 416q-2 0 -3 7t-1 11q0 24 10 37t26 20t34 9t36 2q68 0 129 -40t118 -94t114 -111 t117 -91q30 62 56 145t41 175t15 187t-20 184t-65 166t-121 131t-187 79q-75 17 -169 17q-45 0 -94 -4q-100 -28 -183 -91t-148 -146t-111 -178t-75 -188t-40 -173q-7 -52 -7 -93q0 -22 2 -41z" />
<glyph unicode="R" horiz-adv-x="1686" d="M46 1624q24 42 51 46t51 -12t44 -42t32 -44q62 60 172 91t239 39q45 3 90 3q85 0 173 -10q134 -15 244 -47t183 -80t80 -108q1 -5 0 -11q0 -55 -65 -119q-72 -70 -254 -146q-28 -12 -86 -33t-132 -46t-153 -53t-151 -55t-126 -50t-76 -39q0 -10 10 -23t48 -40t114 -73 t208 -124t330 -193t482 -279q10 -8 25 -18t28 -24t23 -29t10 -33q0 -26 -20 -39t-48 -19t-58 -6h-50h-7q-36 0 -108 38q-79 42 -182 110t-223 153t-238 168t-226 155t-186 114l-22 -698q0 -20 -15 -30t-34 -14t-37 -4h-26q-52 0 -74 62t-27 172q-2 50 -2 109q0 70 3 153 q6 152 11 332q3 112 3 234q0 73 -1 148q-3 202 -27 414zM235 1341q-2 -20 -2 -40q0 -28 4 -57q7 -50 22 -94t35 -64q9 -3 24 -3q23 0 61 7q63 12 149 37t183 61t186 75t159 80t102 77q20 23 20 43q0 11 -6 21q-18 28 -106 44q-36 10 -102 15t-147 5t-169 -7t-166 -22 t-138 -41t-86 -62q-18 -28 -23 -75z" />
<glyph unicode="S" horiz-adv-x="1600" d="M38 228q0 24 17 47t39 43t43 34t29 20q10 -92 70 -139t150 -60q40 -6 85 -6q55 0 117 9q112 16 224 50t216 81t178 97t110 97q22 28 22 52q0 16 -10 29l-1042 414q-20 6 -49 21t-55 34t-44 42t-18 47q0 94 69 172t177 139t240 107t256 77t227 47t153 20q27 8 57 8h12 q37 -2 66 -15t44 -36t3 -55q-12 -30 -66 -54t-133 -44t-176 -39t-196 -39t-190 -43t-160 -53t-105 -69q-28 -31 -28 -68q0 -10 2 -21q48 -16 146 -49t219 -77t251 -94t241 -100t191 -95t102 -77q38 -60 39 -117q0 -11 -2 -22q-9 -67 -58 -129t-129 -117t-176 -102t-200 -84 t-199 -63t-174 -39q-68 -11 -114 -11h-13q-14 -2 -32 -2t-41 2q-45 4 -96 16t-103 32t-94 47t-68 61q-24 32 -24 68v6z" />
<glyph unicode="T" horiz-adv-x="1594" d="M2 1610q0 34 22 67t54 33q182 -8 366 -24t369 -24q106 -5 211 -5q79 0 157 3q183 6 363 40q14 -4 24 -24t16 -46t9 -53t3 -41q-124 -36 -217 -43q-72 -5 -142 -5h-39q-88 2 -181 4h-19q-86 0 -196 -16q-4 -64 -13 -176t-19 -248t-20 -285t-16 -290t-8 -261v-46 q0 -89 6 -152l-234 -18l80 1494l-534 32q-10 0 -18 9t-13 23t-8 28t-3 24z" />
<glyph unicode="U" horiz-adv-x="1438" d="M49 701q5 131 24 268t40 268t41 248t28 207q8 2 32 3t32 1q8 1 16 1q54 0 73 -49q15 -41 15 -104q0 -24 -2 -51q-8 -99 -33 -229t-49 -269t-37 -275q-6 -59 -5 -113q0 -70 9 -132q17 -109 75 -182t174 -85q14 -1 28 0q142 0 242 56q110 62 183 170t115 252t64 303t29 323 t11 312q12 38 32 55t44 19h7q21 0 43 -10q26 -12 54 -32q9 -134 9 -282q0 -49 -1 -100q-4 -204 -12 -415t-15 -420q-4 -113 -4 -220q0 -92 3 -179q0 -28 -26 -37q-21 -7 -47 -7h-12q-33 2 -63 11t-36 19l26 320q-102 -88 -187 -153t-170 -106t-177 -59q-64 -12 -139 -12 q-33 0 -69 2q-116 14 -190 73t-115 151t-53 210q-8 83 -8 173q0 37 1 76z" />
<glyph unicode="V" horiz-adv-x="1566" d="M-18 1604q0 10 19 25t43 27q28 14 64 30q90 -160 178 -352t170 -379t159 -349t145 -260q12 12 50 91t90 195t113 259t122 283t116 266t93 212q34 38 66 52q20 9 39 9q10 0 20 -3q27 -8 46 -34t29 -66l-690 -1592q-20 -12 -48 -19t-57 -7t-55 11t-42 37q-32 86 -94 228 t-136 306t-152 334t-142 315t-105 248t-41 133z" />
<glyph unicode="W" horiz-adv-x="2408" d="M-4 1618q-6 12 -6 23q0 12 7 21q13 18 35 27t48 13t40 4q38 0 60 -14t37 -37t25 -51t22 -56q30 -66 74 -173t93 -229t100 -247t95 -228t77 -173t45 -82q104 260 179 440t128 297t85 181t51 94t28 36t13 6q32 0 74 -41t90 -110t99 -158t101 -184t98 -190t88 -176t72 -140 t52 -83q48 152 92 324t83 346t70 343t55 315q62 0 96 -12t49 -34t18 -52t3 -64q2 8 -8 -55t-30 -178t-49 -270t-67 -330t-82 -359t-94 -356q-50 -34 -83 -36h-6q-29 0 -50 19q-23 21 -41 61t-38 88q-30 40 -71 124t-89 188t-101 216t-105 208t-101 164t-89 84 q-30 -46 -69 -131t-82 -190t-86 -221t-83 -225t-73 -203t-55 -152l-168 -8z" />
<glyph unicode="X" horiz-adv-x="1536" d="M0 1596q0 26 19 44t46 25t55 6t48 -11l548 -726l612 754q20 6 47 8h10q22 0 42 -7q25 -9 44 -33t21 -68l-634 -778q58 -76 129 -143t145 -128t143 -118t124 -113t87 -115t32 -123q-8 -58 -52 -78q-12 -6 -26 -6q-37 0 -86 38l-608 600q-48 -36 -98 -98t-100 -132 t-99 -141t-96 -128t-90 -90q-36 -28 -69 -28q-6 0 -12 1q-76 0 -110 24q-25 18 -25 67q0 17 3 39l534 652q-194 242 -309 397t-176 246t-80 126t-19 37z" />
<glyph unicode="Y" horiz-adv-x="1338" d="M40 1610q6 16 24 25t39 11t29 2q52 0 105 -26t131 -99t193 -203t289 -340q76 222 129 363t94 224t75 117t74 40q24 0 47 -5t33 -37q-52 -110 -99 -243t-93 -279t-92 -301t-96 -307t-107 -298t-121 -276q-16 -12 -47 -13h-6q-28 0 -54 9q-29 10 -48 30t-9 52q10 16 27 67 t38 120t44 151t44 161t40 147t31 112l-696 752q-19 22 -19 37q0 4 1 7z" />
<glyph unicode="Z" horiz-adv-x="1592" d="M34 1670q138 14 317 18t368 4t372 -2h89q131 0 242 4q34 0 67 -10t33 -54q-26 -76 -104 -193t-182 -254t-224 -283t-233 -282t-208 -250t-149 -186q130 -26 250 -29q33 -1 66 -1q89 0 181 6q127 8 273 22t330 26q51 -38 51 -84q0 -5 -1 -10q-6 -52 -64 -80 q-170 -12 -357 -23t-363 -17q-117 -4 -224 -4q-53 0 -104 1q-152 3 -252 17t-135 42q-13 11 -13 24q0 22 36 52l1134 1402q-84 1 -176 1h-93q-143 -1 -291 -4l-296 -6t-284 -3q-40 0 -46 36t-10 120z" />
<glyph unicode="[" horiz-adv-x="1088" d="M78 1948q82 12 181 35t201 45t199 39t177 17q0 -16 3 -33t3 -33t-4 -29t-18 -21q-30 -8 -79 -18t-107 -22t-119 -27t-116 -30t-100 -32t-67 -35q-10 -232 9 -453t44 -440t48 -440t23 -453l636 86q0 -10 7 -39t12 -59t5 -55t-14 -29l-840 -132z" />
<glyph unicode="\" horiz-adv-x="1286" d="M4 1460q-12 24 22 -28q0 24 10 38t26 20t35 8t37 2q96 -94 185 -209t174 -241t170 -255t176 -253t188 -236t207 -202q0 -50 -41 -80t-87 -30q-196 222 -363 430t-298 385t-226 316t-149 225t-66 110z" />
<glyph unicode="]" horiz-adv-x="1384" d="M1 1856q-3 28 21 60q0 2 48 9t123 18t170 25t192 28t186 26t153 20q18 0 43 3t50 1t45 -11t26 -35q-12 -214 -9 -472t16 -540t35 -577t48 -583q-24 -4 -96 -10t-169 -14t-206 -16t-205 -15t-169 -11t-95 -4q-4 0 -6 42t-2 94q96 6 188 6t173 6t148 21t115 51t74 97 t26 159q0 192 -9 400t-25 420t-38 420t-50 398q-96 6 -185 -10t-177 -39t-177 -43t-185 -20q-8 0 -26 13t-33 34t-18 49z" />
<glyph unicode="^" horiz-adv-x="786" d="M70 846q0 30 26 76t74 95t115 98t147 85q54 -34 95 -61t77 -60t73 -79t83 -120q16 -30 17 -56t-11 -42t-35 -18t-55 16q-38 26 -57 40t-31 23t-21 19t-26 27t-46 47t-81 82q-54 -38 -93 -70t-67 -63t-47 -62t-33 -67q-46 0 -75 13t-29 77z" />
<glyph unicode="_" horiz-adv-x="1758" d="M80 47v31v16q138 58 322 82t385 37t402 27t373 52q34 0 66 -9t32 -53q0 -30 -12 -54t-30 -52q-182 -4 -375 -14t-389 -25t-391 -36t-381 -49q0 2 -1 16t-1 31z" />
<glyph unicode="`" horiz-adv-x="440" d="M119 1492q3 24 15 37t31 10t45 -33l168 -164l-42 -108q-64 44 -102 72t-60 50t-34 41t-20 45q-4 26 -1 50z" />
<glyph unicode="a" horiz-adv-x="1302" d="M54 228q-9 45 -9 91q0 69 20 142q33 121 102 236t168 216t211 172t229 104q73 21 142 21q42 0 83 -8q82 0 127 -54t68 -145t28 -210t6 -248t5 -258t22 -239q-2 -4 -19 -24t-43 -32q-16 -8 -36 -8q-11 0 -23 3q-33 7 -65 57q-12 20 -15 71q-2 38 -2 80v29q1 58 2 112v15 q0 43 -5 63q-58 -90 -134 -163t-167 -124t-198 -75q-76 -17 -157 -17q-34 0 -68 3q-42 0 -90 10t-89 32t-67 58t-26 90zM221 333q3 -65 42 -110t123 -59h7q112 0 215 59q106 61 192 153t145 201t80 205q10 47 10 87q0 42 -11 76q-22 67 -100 77q-13 1 -26 1q-66 0 -136 -25 q-84 -30 -163 -85t-149 -128t-122 -152t-81 -157q-26 -71 -26 -131v-12z" />
<glyph unicode="b" horiz-adv-x="1428" d="M74 1614q-2 11 -2 22q0 39 25 58q31 24 70 24t71 -21q27 -18 27 -46q0 -5 -1 -11l20 -942q78 102 191 200t236 173t244 117q100 35 183 34q18 0 35 -1q97 -9 157 -78t60 -215q-8 -128 -78 -253t-177 -236t-241 -200t-275 -144t-275 -70q-37 -4 -71 -4q-92 0 -171 29 q-16 172 -20 368t-4 400t1 407v58q0 172 -5 331zM294 232q-2 -5 -2 -10q0 -23 44 -24h7q51 0 133 25q88 27 198 83t217 141t197 196t138 251q-10 70 -56 98q-37 22 -88 22q-13 0 -26 -1q-68 -7 -151 -44t-169 -96t-166 -135t-142 -160t-99 -173q-35 -84 -35 -164v-9z" />
<glyph unicode="c" horiz-adv-x="1488" d="M54 394q-1 15 -1 31q0 91 50 196q59 123 160 238t232 206t266 132q83 25 161 25q50 0 99 -10q125 -26 217 -144q0 -26 -13 -46t-32 -38t-41 -32t-40 -28q-34 72 -90 100q-48 24 -104 24q-10 0 -20 -1q-68 -5 -144 -38t-150 -84t-140 -114t-115 -130t-75 -132 q-21 -53 -21 -97q0 -10 1 -20q0 -88 34 -142t89 -84t126 -40t145 -10q152 4 273 37t209 70t146 65q48 23 74 23q6 0 10 -1q16 0 33 -2t30 -11t18 -26q2 -8 2 -18q0 -12 -3 -29q-6 -38 -52 -73t-118 -65t-160 -55t-176 -42t-167 -25q-53 -5 -93 -5q-20 0 -38 1q-88 0 -190 20 t-189 66t-145 121t-58 187z" />
<glyph unicode="d" horiz-adv-x="1316" d="M34 250q-13 61 -13 118q0 66 17 128q32 116 106 212t180 167t226 111t247 44q12 0 24 1q114 0 219 -35q0 44 1 115t2 147t3 146t6 114q12 102 48 157q27 41 85 41q19 0 41 -4q3 -104 3 -196q0 -46 -1 -89q-2 -129 -6 -246t-8 -230t-4 -240t5 -275t19 -332q0 -58 -21 -82 t-71 -24q-48 0 -73 31t-34 74t-9 91v82q-92 -70 -194 -126t-202 -91t-195 -46q-34 -4 -65 -4q-58 0 -109 13q-79 20 -139 75t-88 153zM208 354q4 -92 53 -131q35 -28 89 -28q22 0 48 5q42 0 129 23t180 60t175 82t116 91v332q-52 56 -132 71q-36 7 -75 7q-46 0 -95 -10 q-90 -18 -179 -65t-159 -114t-112 -150q-38 -76 -38 -157v-16z" />
<glyph unicode="e" horiz-adv-x="1320" d="M54 328q-5 46 -5 91q0 116 33 232q46 161 143 288t235 204q131 73 288 73h16h8q65 0 148 -30q88 -32 162 -89t119 -132q33 -55 33 -116q0 -21 -4 -43q2 -42 -42 -69t-117 -43t-170 -23t-204 -11t-217 -7t-208 -11q-40 -109 -40 -191q0 -33 7 -62q23 -99 98 -151t186 -61 q30 -2 61 -2q83 0 170 17q120 24 236 77t200 127q12 0 31 -8t37 -21t31 -28t13 -27q-50 -86 -152 -154t-230 -110t-267 -52q-35 -2 -68 -2q-101 0 -193 22q-122 30 -214 106t-124 206zM394 838l616 24q-10 76 -60 114t-118 49q-30 5 -61 5q-40 0 -83 -8q-76 -14 -141 -42 t-108 -66t-45 -76z" />
<glyph unicode="f" horiz-adv-x="1492" d="M4 648l410 58q-36 234 -38 400v28q0 148 19 251q21 113 63 180t93 102t109 46t112 13h15q59 0 123 -14q72 -16 142 -47t132 -74t110 -93t76 -103t28 -105q0 -6 -10 -18t-22 -25t-23 -25t-13 -16q-44 58 -106 125t-136 123t-156 93t-164 37q-74 -20 -120 -75t-70 -131 t-29 -165q-2 -34 -2 -68q0 -54 5 -107q8 -86 27 -162t43 -128q108 0 201 10t185 23t189 25t213 14q6 0 9 -15t3 -39t1 -52t5 -54l-766 -90l46 -554l-204 8q0 132 -13 259t-35 257l-356 -48q-16 0 -33 15t-31 38t-23 51t-9 52z" />
<glyph unicode="g" horiz-adv-x="1346" d="M58 168q4 86 42 193t100 218t144 217t175 191t191 140t194 64q15 1 31 1q79 0 153 -39q88 -47 158 -165q48 -378 58 -661q3 -94 3 -180q0 -171 -13 -308q-20 -205 -64 -342t-104 -224t-132 -133t-145 -69t-144 -32t-131 -23q-74 -3 -134 -3h-30q-72 1 -118 16t-65 49 q-10 18 -10 45q0 23 7 51l496 40q118 22 191 99t115 186t57 236t17 252v62q0 91 -4 173q-6 110 -8 184q-72 -66 -165 -139t-202 -131t-234 -92q-97 -26 -201 -26q-31 0 -62 2q-74 0 -120 36t-46 112zM262 258v-7q0 -41 22 -61q27 -21 77 -21q17 0 35 2q76 9 168 50t187 108 t170 155t116 192q29 75 29 155q0 31 -4 63q0 30 -13 50t-35 32t-50 16t-58 4q-58 0 -121 -30t-125 -80t-121 -115t-108 -135t-87 -140t-59 -131t-23 -107z" />
<glyph unicode="h" horiz-adv-x="1268" d="M69 1329q1 173 21 311q20 40 53 58t66 18t58 -18t27 -50q-2 -22 -6 -73t-8 -120t-7 -149t-4 -159v-39q0 -58 2 -112q3 -72 13 -124l101 101t122 92t160 54q33 5 71 5q66 0 146 -16q86 -20 146 -87t98 -162t60 -207t33 -225t14 -216t7 -177q-10 -18 -43 -32t-68 -16h-9 q-30 0 -54 12q-28 14 -28 50q0 64 -2 149t-9 177t-22 184t-39 168t-59 129t-85 69q-51 10 -100 10q-58 0 -113 -14q-101 -26 -174 -127t-113 -287q-32 -149 -32 -369q0 -55 2 -115q-24 -10 -49 -18t-52 -10t-54 3t-57 21q5 161 5 312q0 94 -2 184q-5 234 -11 438 q-5 175 -5 327v50z" />
<glyph unicode="i" d="M60 1514q0 46 26 66t62 23q8 1 17 1l55 -8q36 -10 52 -24q8 -28 8 -50q0 -29 -14 -46q-24 -30 -63 -33h-10q-34 0 -71 17q-42 20 -62 54zM134 58v1116h158q18 -246 32 -523t24 -559q-10 -40 -41 -58t-67 -19h-6q-33 0 -61 11q-31 12 -39 32z" />
<glyph unicode="j" horiz-adv-x="426" d="M-348 -738q-3 9 -3 21q0 14 4 31q7 32 24 62t43 47t56 7q58 -66 133 -108q73 -41 138 -41h3q66 1 113 55t51 180q0 212 -13 421t-26 416t-21 415q-4 92 -4 186q0 117 6 236q2 44 33 57q22 9 48 9q10 0 20 -1q37 -5 69 -21t36 -30q-21 -157 -21 -326v-15q1 -177 12 -357 t27 -356t24 -335q5 -98 5 -187q0 -56 -2 -108q-5 -136 -35 -237t-92 -160t-168 -63q-46 0 -113 10t-136 33t-127 62t-84 97zM110 1505q0 45 23 78t65 46q13 4 28 4q31 0 68 -19q18 -14 23 -41q2 -10 2 -21q0 -18 -5 -36q-8 -30 -25 -57t-40 -44t-52 -17t-59 26 q-28 36 -28 81z" />
<glyph unicode="k" horiz-adv-x="1256" d="M40 1634q18 44 44 61t52 17t46 -11t26 -21l48 -886q36 18 93 58t124 89t138 100t135 94t116 70t80 27q18 6 32 -2t24 -23t14 -36t2 -41l-692 -508l906 -488q0 -62 -22 -92t-102 -34q-90 26 -183 86t-196 128t-216 133t-241 99q0 -30 5 -82t7 -111q1 -17 1 -34 q0 -42 -4 -84q-5 -59 -27 -99t-64 -55q-15 -5 -34 -5q-33 0 -78 16q0 302 -2 521t-6 378t-8 269t-8 191t-7 144t-3 131z" />
<glyph unicode="l" horiz-adv-x="332" d="M52 1640q14 32 39 49t51 22q9 2 18 2q16 0 31 -6q23 -9 37 -31l46 -1604q0 -36 -22 -52t-50 -17h-4q-26 0 -54 11q-30 12 -46 36z" />
<glyph unicode="m" horiz-adv-x="1992" d="M66 40q-1 22 -1 48q0 39 2 88q3 82 6 179t6 205t4 214v42q0 84 -3 163q-4 99 -14 179q0 22 15 36t38 22t49 11t48 3q16 0 20 -38t4 -87t-1 -98v-13q0 -39 5 -58q30 62 96 118t148 94t172 53q40 7 77 7q48 0 93 -11q80 -19 139 -77t79 -166q62 60 145 114t174 91t183 52 q42 7 81 7q47 0 90 -10q79 -18 136 -73t81 -159l38 -958q0 -4 -33 -11t-73 -9q-11 -1 -22 -1q-27 0 -52 4q-34 5 -34 25q-2 41 -2 90q0 37 1 79q3 97 6 200t5 206q1 41 1 80q0 58 -2 109q-3 86 -15 146t-34 80q-68 22 -144 22t-150 -32t-141 -100t-117 -183t-78 -282 q-23 -138 -23 -318q0 -39 1 -79q-10 -34 -47 -44q-26 -7 -54 -7q-11 0 -23 1q-40 4 -69 19t-23 31q20 104 29 216t9 221t-8 207t-22 174t-35 122t-47 52q-23 2 -44 2q-88 0 -154 -33q-82 -41 -139 -117t-92 -178t-52 -215t-22 -231q-3 -66 -3 -127q0 -49 2 -97 q-32 -12 -71 -27t-77 -15q-22 0 -34 8t-28 34z" />
<glyph unicode="n" horiz-adv-x="1226" d="M30 1162q60 36 96 36q8 0 15 -2q37 -10 53 -51t20 -100t12 -113q206 150 356 215t253 65t166 -56t99 -151t50 -218t18 -256t5 -267t11 -250q-26 -24 -66 -27q-15 -1 -29 -1q-24 0 -45 3q-34 5 -52 13t0 6q-6 52 -8 131t-2 170v188t-2 185t-9 160t-21 116q-16 38 -59 55 q-37 14 -87 14h-18q-62 -3 -135 -24t-148 -57t-146 -87t-125 -113l-16 -724q-6 -16 -28 -24t-51 -8t-57 8t-46 28z" />
<glyph unicode="o" horiz-adv-x="1346" d="M42 474q0 164 58 297t152 229t210 152t234 68q40 5 79 5q88 0 169 -28q116 -41 200 -124t131 -201q42 -105 41 -225v-31q-18 -164 -86 -281t-173 -192t-242 -110t-293 -35q-236 0 -358 110t-122 366zM214 414q8 -120 79 -181t174 -73q29 -3 59 -3q77 0 163 22 q119 31 221 96t172 158t74 205v12q0 48 -14 109q-16 69 -59 133t-118 114t-191 64q-42 -2 -102 -15t-125 -43t-128 -80t-111 -122t-75 -170q-21 -76 -21 -169q0 -28 2 -57z" />
<glyph unicode="p" horiz-adv-x="1268" d="M26 1154q8 8 33 18t54 9t55 -19t36 -62q274 94 470 104q34 2 67 2q151 0 254 -39q125 -47 181 -140q49 -81 49 -180q0 -14 -1 -28q-8 -115 -78 -239t-196 -233t-307 -190t-411 -109q2 -28 2 -92v-146t1 -173t3 -174t4 -149t6 -96q2 -14 2 -26q0 -29 -10 -50 q-14 -30 -42 -47t-66 -22q-21 -3 -43 -3q-18 0 -37 2zM216 680l4 -464q220 28 380 101t262 167t145 196q32 76 32 141q0 23 -4 44q-15 83 -87 136q-69 51 -193 51h-9q-78 -2 -173 -19t-176 -59t-134 -114q-48 -65 -48 -158q0 -11 1 -22z" />
<glyph unicode="q" horiz-adv-x="1276" d="M46 194q-2 22 -2 44q0 93 28 192q34 122 99 237t156 217t196 177t218 117q103 38 204 38h19q36 0 75 -6t74 -22t60 -44t33 -74q0 -216 1 -465t5 -506t11 -506t21 -465q-14 -28 -40 -44t-56 -18h-9q-25 0 -50 10q-29 12 -47 36l-36 1126q-54 -58 -132 -105t-164 -79 t-172 -49q-70 -14 -126 -14q-13 0 -26 1q-46 0 -105 10t-111 33t-88 62t-36 97zM234 280q0 -48 18 -74t48 -37t68 -12t78 -1q78 6 151 31t136 63t112 86t79 100q30 50 47 134t20 175q1 18 1 36q0 71 -10 137q-12 82 -44 126q-80 0 -163 -33t-161 -89t-147 -132t-121 -160 t-82 -174t-30 -176z" />
<glyph unicode="r" horiz-adv-x="1276" d="M50 52v89t1 182t3 234t3 249t2 224t1 160q4 38 32 47q19 6 41 6q9 0 19 -1q52 -6 78 -53t36 -105t10 -113t2 -79q56 48 125 110t168 113t238 78q74 14 163 14q80 0 172 -11q48 -12 71 -46q24 -36 24 -74q0 -35 -20 -65q-21 -31 -59 -35q-48 36 -128 42q-18 1 -38 1 q-64 0 -137 -15q-95 -20 -193 -64t-181 -110t-142 -152t-73 -188v-438q-4 -10 -32 -29t-63 -28q-17 -4 -33 -4l-37 5q-35 10 -53 56z" />
<glyph unicode="s" horiz-adv-x="1156" d="M46 672q-4 19 -4 37q0 28 10 51q0 66 39 129t106 116t156 96t191 68t210 31l50 2q83 0 164 -16q52 -24 85 -55t45 -62t0 -59t-50 -48q-82 36 -173 53q-74 14 -147 14q-17 0 -34 -1q-90 -4 -173 -27t-146 -64t-103 -101t-42 -136q0 -42 33 -55q31 -12 72 -12h6q45 1 94 10 t79 9q139 20 243 20q45 0 84 -4q129 -12 197 -52t80 -100q3 -15 3 -31q0 -46 -26 -98q-35 -69 -113 -139t-190 -128t-253 -97t-301 -47q-17 -6 -31 -6q-18 0 -32 10q-25 18 -37 48q-10 24 -10 50q0 6 1 13q3 33 23 49q180 14 327 50t248 83t151 100q39 41 39 82q0 11 -3 23 q-14 49 -125 49q-16 0 -34 -1q-143 -8 -423 -64q-82 6 -143 38t-97 77t-46 95z" />
<glyph unicode="t" horiz-adv-x="1036" d="M-20 945q6 29 26 51t42 24h374l-8 624q8 24 34 40t56 19q6 1 13 1l47 -9q30 -11 48 -41l18 -624l354 8q36 -20 49 -49q11 -25 11 -49v-7q-2 -27 -15 -48t-29 -25l-370 -8q-1 -35 -1 -69q0 -83 4 -154q5 -99 12 -192t12 -192t5 -221q-55 -38 -112 -38h-6q-60 2 -82 50 l-22 812h-388q-48 12 -63 40q-11 20 -11 41q0 8 2 16z" />
<glyph unicode="u" horiz-adv-x="1252" d="M34 457q-1 22 -1 45q0 57 4 119q5 87 16 178t27 170t36 140t44 91q36 20 65 20q21 0 39 -11q37 -22 37 -69q0 -7 -1 -14q-6 -52 -28 -135t-43 -187t-30 -221q-3 -34 -3 -68q0 -83 16 -167q18 -72 73 -111t131 -50q35 -5 72 -5q44 0 91 7q87 13 169 44t150 76t106 97 q3 59 3 131v36q-1 93 -4 195t-4 210v43q0 86 3 171q32 38 74 38q8 0 17 -1q53 -9 81 -51l58 -1152q-18 -18 -41 -32t-47 -19q-10 -2 -20 -2q-14 0 -26 4q-22 7 -38 31l-32 190q-32 -28 -112 -69t-183 -74t-217 -48q-44 -6 -85 -6q-66 0 -127 15q-98 24 -170 97t-90 215 q-8 52 -10 129z" />
<glyph unicode="v" horiz-adv-x="1294" d="M66 1098q-4 13 -4 27q0 19 8 39q14 34 39 54q24 19 50 19h3q28 -1 46 -37l470 -910l438 928q24 12 51 9t50 -17t37 -38t14 -50q-108 -232 -185 -406t-130 -299t-90 -207t-64 -129t-52 -66t-55 -19q-26 0 -66 45t-90 124t-107 185t-118 229t-123 255t-122 264z" />
<glyph unicode="w" horiz-adv-x="1864" d="M28 1134q0 46 21 68t50 23h3q27 0 54 -16q28 -17 40 -49q18 -26 48 -114t73 -212t99 -270t126 -290q22 46 45 120t47 160t48 173t51 158t57 116t62 47q5 3 11 3q20 0 50 -34q39 -45 87 -123t101 -176t103 -190t91 -166t65 -104l316 924q16 22 42 30t51 2t44 -28t19 -60 q-26 -88 -58 -209t-68 -250t-74 -253t-79 -220t-83 -151q-36 -47 -71 -47l-13 2q-7 -3 -15 -3q-19 0 -43 21q-34 30 -75 88t-88 137t-96 163t-100 167t-99 149q-54 -182 -93 -335t-78 -251t-88 -131q-18 -12 -39 -12q-37 0 -86 37q-40 44 -90 133t-101 201t-99 234t-85 230 t-60 191t-23 117z" />
<glyph unicode="x" horiz-adv-x="1204" d="M38 1052q0 12 10 37t29 49t47 39q20 11 45 11q10 0 21 -2l412 -496q34 44 76 107t90 133t98 140t102 130q30 0 53 -12t39 -29t25 -37t9 -38l-328 -512l432 -452q9 -17 9 -35q0 -10 -3 -21q-8 -30 -29 -53t-51 -33q-12 -4 -25 -4q-18 0 -37 8l-432 450q-36 -40 -88 -102 t-109 -126t-111 -120t-92 -84q-24 -12 -53 -12t-54 11t-41 31t-16 46q6 6 34 35t67 71t85 94t88 103t78 99t54 82q-122 136 -218 244q-40 46 -79 90t-69 79t-40 46z" />
<glyph unicode="y" horiz-adv-x="1426" d="M18 1040q-2 9 -2 18q0 16 7 32q11 24 31 44t46 34t48 18l670 -974l428 988q4 10 28 13q7 1 15 1q17 0 36 -5q27 -7 48 -29q18 -18 18 -50q0 -6 -1 -12l-764 -2028q-20 -42 -56 -54q-22 -7 -42 -7q-14 0 -28 3q-34 8 -56 31t-16 49l310 862z" />
<glyph unicode="z" horiz-adv-x="1234" d="M34 1067q0 27 13 54t39 48t64 25q15 4 45 4h22q47 -2 149 -5q76 -2 192 -2h82q172 1 444 13q78 -10 98 -47q9 -17 9 -39q0 -25 -12 -54q-23 -56 -81 -128t-136 -152t-168 -164t-178 -164t-166 -152t-132 -128l808 22q14 0 32 -14t31 -38t17 -57q1 -7 1 -15q0 -26 -11 -54 q-60 7 -133 7q-29 0 -60 -1q-109 -4 -225 -12t-232 -17t-213 -9t-168 13t-99 47q-15 18 -15 44q0 23 12 52q25 62 119 158q90 88 193 180t203 183t193 183t165 180l-888 -2q-14 14 -14 41z" />
<glyph unicode="{" horiz-adv-x="902" d="M94 936q8 58 32 98t56 68t70 49t73 43t64 46t45 60q-4 88 -11 177t-4 173t24 157t74 127t146 85t239 31l-4 -164q-16 -2 -48 1t-70 -6t-76 -39t-65 -101t-37 -192t10 -309q0 -50 -41 -84t-90 -63t-90 -60t-41 -73q-12 -22 1 -53t40 -64t63 -64t72 -55t66 -39t46 -13 q-14 -206 1 -342t49 -218t80 -123t93 -57t89 -20t68 -12l-10 -168q-158 10 -259 49t-162 100t-90 141t-41 173t-17 196t-17 209q-16 28 -63 60t-101 72t-101 90t-63 114z" />
<glyph unicode="|" horiz-adv-x="372" d="M130 -100l2 1912h148l14 -1906q0 -4 -24 -4h-54h-56t-30 -2z" />
<glyph unicode="}" horiz-adv-x="1052" d="M94 -100q24 8 67 12t90 20t93 57t80 123t49 217t1 343q16 -2 46 13t66 39t72 55t63 64t40 63t1 54q0 42 -41 73t-90 60t-90 63t-41 84q20 188 10 309t-37 192t-65 101t-76 39t-70 6t-48 -1l-4 164q146 0 239 -31t146 -85t74 -127t24 -157t-4 -173t-11 -177q16 -36 45 -60 t64 -46t73 -43t70 -49t56 -68t32 -98q-16 -64 -63 -114t-101 -90t-101 -72t-63 -60q-12 -106 -17 -209t-17 -196t-41 -173t-90 -141t-162 -100t-259 -49z" />
<glyph unicode="~" horiz-adv-x="1138" d="M38 674q38 120 113 212t159 126q34 14 65 2t62 -37t60 -58t60 -63t64 -50t69 -20q56 0 87 17t57 50t57 81t87 108q8 0 21 -5t25 -14t20 -19t8 -20q10 -56 -14 -111t-70 -101t-108 -78t-127 -43t-126 4t-107 65q-50 44 -88 74t-77 27t-86 -48t-119 -151q-8 0 -22 2t-28 8 t-26 16t-16 26z" />
<glyph unicode="&#xa1;" horiz-adv-x="346" d="M58.5 1151.5q-8.5 -18.5 9 -45.5t77.5 -57q21 -10 44 -8t41.5 11t30.5 21.5t12 25.5q-16 39 -48.5 60t-66 25.5t-62.5 -5t-37.5 -28zM63 664q0 -75 1 -138t1 -121t1 -121t1 -139v-177q40 -26 68.5 -30t47.5 3t32 20t19 22l-4 856q-16 24 -41 30t-50.5 2t-46.5 -14 t-29 -18v-175z" />
<glyph unicode="&#xa2;" horiz-adv-x="1620" d="M54 394q-10 106 47 212t155 198t225 164t259 112v344h148l-2 -312q44 4 106 8t118 -8t96 -45t40 -103q0 -26 -13 -46t-32 -38t-41 -32t-40 -28q-12 60 -30 90t-47 39t-68 2t-89 -21l-2 -736q78 24 153 55t148 60t144 48t141 19q16 0 33 -2t30 -11t18 -26t-1 -47 q-10 -40 -78 -77t-165 -71t-210 -62t-213 -46v-200q0 -4 -20 -4h-45t-48 -1t-27 -3l-2 184q-34 -4 -62 -7t-44 -3q-88 0 -190 20t-189 66t-145 121t-58 187zM254 432q0 -88 34 -142t89 -84t126 -40t145 -10q48 0 94 6l-2 722q-98 -36 -191 -84t-163 -105t-107 -123t-25 -140 z" />
<glyph unicode="&#xa3;" horiz-adv-x="1380" d="M-36 912q0 34 29 47t59 17q40 4 99 11t99 15q6 158 16 272t34 193t67 126t117 73q166 56 299 63t234 -17t171 -71t111 -97t53 -94t-3 -64t-57 -6t-110 80q-24 24 -79 56t-127 55t-152 31t-154 -13t-137 -81t-97 -170l-38 -308q12 2 41 1t62 -3t62 -3t43 1q50 0 85 -17 t46 -40t-3 -48t-60 -39l-278 -2l-86 -716q100 18 176 32t139 22t121 7t122 -11t142 -30t180 -54q16 -6 22 -21t0 -32t-28 -32t-62 -19q-38 -4 -77 4t-88 20t-112 23t-147 11q-56 0 -92 -6t-65 -16t-58 -22t-72 -21t-107 -15t-162 -4q12 46 23 152t20 234t15 256t10 218 l-120 -12q-16 0 -38 2t-41 9t-33 19t-14 34z" />
<glyph unicode="&#xa4;" horiz-adv-x="1440" d="M-2 72q4 2 30 24t60 52t69 60t57 52q-98 112 -98 342q0 126 43 223t115 171q-40 38 -76 74l-63 63l-43 43l-16 16l180 168q70 -76 119 -131t85 -95q96 52 199 79t199 37q114 6 218 -32q18 20 44 53t54 66t54 64t44 49q36 0 65 -13t49 -32t31 -41t11 -40q-12 -22 -33 -55 t-43 -66t-44 -63t-34 -48q58 -64 89 -141t21 -167q0 -104 -27 -191t-75 -159q76 -72 135 -135t83 -95q0 -12 -14 -33t-33 -42t-41 -39t-38 -26q-56 24 -117 83t-129 131q-108 -76 -245 -114t-287 -38q-56 0 -105 5t-93 17l-42 -36t-59 -49t-58 -47t-37 -28q-18 -2 -48 4 t-61 17t-58 28t-37 35zM268 518q0 -84 21 -134t62 -75t100 -33t137 -8q120 0 232 23t198 78t138 146t52 227q0 70 -20 133t-60 110t-98 75t-132 28q-98 -16 -196 -37t-184 -76t-152 -162t-98 -295z" />
<glyph unicode="&#xa5;" horiz-adv-x="1368" d="M-21 1605q15 23 44 40t59 27t38 10q40 -30 71 -51t62 -46t69 -61t95 -98t138 -155t197 -233q76 222 134 363t105 223t86 115t79 39q12 0 27 -10t28 -26t24 -34t17 -34q-40 -84 -90 -179t-102 -199t-104 -216t-94 -232l-4 -64q56 8 106 14t96 14q40 12 61 0t25 -36t-7 -51 t-35 -43l-252 -34l-6 -114q62 10 133 21t167 31q58 0 75 -37t7 -89q-118 -2 -211 -15t-177 -33l-20 -404q-6 -18 -35 -38t-61 -26t-60 11t-34 71q6 12 11 44t7 78t4 103t2 121q-76 -16 -156 -26t-178 -10q-30 0 -45 18t-15 68q0 10 16 26t26 16q114 18 197 29t153 19v108 l-276 -36q-12 0 -31 -1t-39 2t-35 12t-19 31l50 90q2 2 31 6t77 10t110 12t132 14q0 30 1 58t3 54l-668 682q-24 28 -9 51z" />
<glyph unicode="&#xa6;" horiz-adv-x="328" d="M70 40q2 40 4 110t4 161t5 196t7 217h164l-20 -638q-2 -24 -23 -42t-47 -25t-53 -2t-41 23zM92 786q6 186 11 332t7 212q-4 56 21 71t59 15q28 0 52 -6t34 -40l-20 -586z" />
<glyph unicode="&#xa7;" horiz-adv-x="1286" d="M24 740q0 84 68 163t178 145q-84 38 -130 103t-46 129q0 66 45 131t121 123t176 105t210 76t225 38t221 -11q60 0 70 -53t10 -171q-82 36 -177 53t-191 13t-186 -27t-159 -64t-113 -101t-46 -136q0 -42 33 -55t78 -12t94 10t79 9q218 46 358 48t211 -29t80 -88t-32 -127 t-128 -147t-207 -149q158 -16 223 -67t55 -119t-84 -144t-196 -144t-280 -118t-336 -64q-10 0 -22 15t-25 35t-23 38t-16 24q120 20 233 51t208 67t164 74t103 70t26 56t-70 32t-182 -1t-312 -43q-72 2 -129 28t-97 64t-61 83t-21 87zM230 716q0 -28 14 -42t36 -20t50 -6 t58 4q116 38 221 87t185 99t129 98t55 84q6 54 -43 72t-128 8t-175 -44t-181 -86t-147 -117t-74 -137z" />
<glyph unicode="&#xa8;" horiz-adv-x="950" d="M161 1550q-9 34 8 65t49 54t58 23q52 0 78 -38t26 -78q0 -30 -16 -50t-39 -31t-50 -12t-49 9q-56 24 -65 58zM471 1562q-9 34 8 65t49 54t58 23q52 0 78 -38t26 -78q0 -30 -16 -50t-39 -31t-50 -12t-49 9q-56 24 -65 58z" />
<glyph unicode="&#xa9;" horiz-adv-x="1616" d="M96 476q6 102 33 221t73 237t111 227t151 193t192 134t234 50q168 0 290 -65t202 -171t118 -243t38 -283q0 -190 -63 -335t-177 -244t-271 -150t-345 -51q-92 0 -198 28t-195 86t-145 149t-48 217zM242 458q0 -106 42 -172t111 -103t154 -50t173 -13q344 0 518 178 t174 504q6 304 -146 465t-440 145q-82 14 -157 -37t-140 -139t-118 -201t-91 -223t-59 -205t-21 -149zM410 616q-4 80 19 160t66 153t101 135t122 105t129 65t125 14q24 0 45 -4t38 -18t27 -41t10 -71t-26 -74t-46 -52q-6 52 -18 86t-52 34q-66 -22 -145 -63t-145 -100 t-106 -134t-30 -161q0 -78 19 -125t51 -72t73 -34t83 -9q64 0 125 29t120 65t115 65t110 29q20 0 37 -11t9 -61q-6 -32 -40 -63t-85 -59t-112 -53t-117 -42t-102 -27t-68 -10q-50 0 -108 17t-108 57t-83 106t-33 164z" />
<glyph unicode="&#xaa;" horiz-adv-x="638" d="M32 434q-10 60 4.5 125.5t45 128t74 117.5t93 93.5t101 56t98.5 7.5q36 0 56 -29.5t30 -79t12.5 -114t2.5 -134.5t2 -139.5t10 -129.5q-1 -2 -8.5 -13t-19 -17.5t-26 -2.5t-28.5 31q-5 11 -6.5 38.5t-1 59t1 60.5t-2.5 42q-25 -48 -58.5 -88t-73.5 -67.5t-87.5 -40.5 t-98.5 -7q-19 0 -40 5t-39 17t-29.5 31.5t-11.5 49.5zM105.5 490.5q1.5 -35.5 18.5 -60t54 -31.5q51 -1 97.5 32t84.5 83t64 109t35 111t-0.5 88.5t-43.5 41.5q-35 3 -72 -13t-71.5 -46t-65.5 -69.5t-54 -82.5t-35.5 -85t-11 -77.5z" />
<glyph unicode="&#xab;" horiz-adv-x="1794" d="M210 572q80 62 187 148t218 172t213 161t174 115q18 -2 30 -18t19 -38t6 -45t-9 -37l-588 -448q38 -18 107 -51t155 -75t179 -92t177 -106q-4 -4 -11 -21t-16 -36t-17 -36t-12 -17q-48 30 -119 58t-153 58t-167 63t-159 70t-131 80t-83 95zM794 628q80 62 187 148 t218 172t213 161t174 115q18 -2 30 -18t19 -38t6 -45t-9 -37l-588 -448q38 -18 107 -51t155 -75t179 -92t177 -106q-4 -4 -11 -21t-16 -36t-17 -36t-12 -17q-48 30 -119 58t-153 58t-167 63t-159 70t-131 80t-83 95z" />
<glyph unicode="&#xac;" horiz-adv-x="1534" d="M182 664l8 164q148 -6 320 8t343 27t330 16t285 -27q-8 -84 -10 -134t-2 -84v-59t-1 -58t-7 -83t-16 -132q-74 -8 -106 1t-41 49t-4 119t5 211z" />
<glyph unicode="&#xad;" horiz-adv-x="794" d="M74 604q0 34 29 47t59 17q114 16 223 35t227 31q50 0 85 -17t46 -40t-3 -48t-60 -39l-480 -50q-16 0 -38 2t-41 9t-33 19t-14 34z" />
<glyph unicode="&#xae;" horiz-adv-x="1616" d="M96 476q6 102 33 221t73 237t111 227t151 193t192 134t234 50q168 0 290 -65t202 -171t118 -243t38 -283q0 -190 -63 -335t-177 -244t-271 -150t-345 -51q-92 0 -198 28t-195 86t-145 149t-48 217zM242 458q0 -106 42 -172t111 -103t154 -50t173 -13q396 0 570 238 q-16 -4 -31 -3t-25 1q-24 0 -93 42t-158 98t-184 110t-169 78v-274q0 -10 -8 -15t-18 -6t-19 -1h-13q-42 0 -51 55t-7 151t4 226t-16 280q12 20 26 22t26 -6t23 -20t17 -20q32 28 89 43t123 19t135 -3t126 -23t95 -38t42 -51t-34 -62t-132 -69q-22 -10 -77 -27t-115 -37 t-112 -38t-70 -30q0 -8 14 -15l74 -37t184 -93t344 -179l20 -15t18 -19q94 160 94 400q6 304 -146 465t-440 145q-82 14 -157 -37t-140 -139t-118 -201t-91 -223t-59 -205t-21 -149zM600 967q-2 -23 2 -47t12 -45t18 -31q14 -4 66 8t117 33t130 47t104 52t41 47t-58 31h-97 t-128 -4t-120 -17t-75 -39q-10 -12 -12 -35z" />
<glyph unicode="&#xaf;" horiz-adv-x="794" d="M74 1398q0 34 29 47t59 17q114 16 223 35t227 31q50 0 85 -17t46 -40t-3 -48t-60 -39l-480 -50q-16 0 -38 2t-41 9t-33 19t-14 34z" />
<glyph unicode="&#xb0;" horiz-adv-x="562" d="M62 876q0 84 30 133t76 69t100 14t102 -34t82 -73t40 -101q0 -126 -52 -167t-154 -41q-32 0 -71 12t-73 37t-57 63t-23 88zM160 911q-8 -43 30 -105q46 -38 89 -42t71 16t37 59t-13 87q-42 46 -90 56t-82 -9t-42 -62z" />
<glyph unicode="&#xb1;" horiz-adv-x="1342" d="M46 690l480 100v414q0 18 10 27t24 14t29 6t23 1q44 0 57 -15t23 -73q4 -18 11 -66t14 -101t12 -100t7 -65l466 54q0 -58 -5 -85t-47 -42t-139 -29t-279 -46q-10 -52 -4 -111t16 -121t21 -125t13 -123q120 22 223 38t155 22q50 0 85 -17t46 -40t-3 -48t-60 -39l-920 -132 q-16 0 -38 2t-41 9t-33 19t-14 34q0 34 29 47t59 17q46 6 138 21t202 35q-4 54 -10 118t-15 130t-23 130t-32 116q-52 0 -103 -13t-102 -28t-104 -29t-109 -16q-30 0 -46 36t-16 74z" />
<glyph unicode="&#xb2;" horiz-adv-x="960" d="M50 1091q1 33 27.5 64.5t67.5 60t95 51t109.5 35.5t109.5 14.5t98 -11t72.5 -42t35.5 -78.5q0 -48 -19.5 -105.5t-51.5 -118.5t-74 -122t-85.5 -117t-87 -104.5t-80.5 -83.5q73 -5 135.5 3t121 19.5t118.5 22.5t130 11q19 0 36 -7.5t17 -27.5t-16 -34.5t-39.5 -24.5 t-51.5 -16t-53 -9t-44 -4t-23 -2q-18 -3 -69.5 -12t-116.5 -17t-133.5 -13t-122.5 -1t-82.5 20t-13.5 49q39 30 89.5 76.5t104 103t105.5 119t94.5 124t71 119t35.5 103.5t-12.5 77t-72.5 40q-68 0 -121 -25t-101 -55.5t-96 -56t-107 -25.5z" />
<glyph unicode="&#xb3;" horiz-adv-x="840" d="M36 1222q0 9 1 22.5t4.5 27.5t10.5 25.5t20 16.5q67 17 137.5 36.5t138 34t129.5 22t112 1.5t86 -27t51 -64q0 -45 -24 -86t-58 -79t-71.5 -71t-63.5 -58q108 -6 161 -37t62.5 -77.5t-18 -103t-78.5 -113t-119.5 -108.5t-141.5 -88.5t-143.5 -54t-127.5 -3.5q-17 0 -34 9 t-17 34q105 18 195.5 56t159 85t114 97.5t63 94t4.5 74.5t-62 39.5t-136 -12t-217 -78.5l-55 74q31 17 76.5 40.5t96 52.5t102 60.5t94.5 64t73 63t37.5 55.5t-13 43.5t-76.5 27.5q-70 0 -127 -15t-111 -33t-110.5 -33t-124.5 -15z" />
<glyph unicode="&#xb4;" horiz-adv-x="440" d="M62 1316l172 196q26 32 50 42t40 3t26 -26t10 -41q-6 -24 -15 -43t-31 -45t-64 -63t-110 -93z" />
<glyph unicode="&#xb6;" horiz-adv-x="970" d="M67 846q-41 88 0 171t153 133t288 54t404 -66l-38 -1140q-4 0 -34 2t-66 4q-4 0 -4 78t2 196t5 254t6 254t3 196t-4 78q-10 0 -15 2t-13 2q-6 0 -10 -78t-6 -196t-4 -255t-3 -255t-2 -196l-1 -78q-16 0 -40 -2t-47 5t-38 28t-13 63q2 18 4 54t3 81t2 93t2 92t1 79t2 51 q-234 46 -365 127t-172 169z" />
<glyph unicode="&#xb7;" horiz-adv-x="360" d="M38 600q12 60 46 83t70 18t66 -33t34 -70q0 -60 -24 -79t-74 -19q-16 0 -36 7t-38 19t-31 31t-13 43z" />
<glyph unicode="&#xb8;" horiz-adv-x="682" d="M108 -460q80 -8 159 6t138 37t89 51t15 50t-87 31t-216 -3q-30 0 -47 30t-26 72t-11 88t-2 80q-8 70 9 83t39 0t38 -38t6 -33q0 -34 -1 -65t3 -55t15 -38t33 -14q116 12 191 -3t113 -48t44 -78t-16 -91t-67 -87t-108 -67t-141 -30t-164 24q-6 0 -6 13t1 30t2 33t-3 22z " />
<glyph unicode="&#xb9;" horiz-adv-x="288" d="M66 375q2 19 3.5 59.5t4 94.5t4.5 118t5.5 129.5t5.5 129.5t4.5 117.5t4 94t3.5 59.5q-4 29 15.5 37t46.5 8q21 0 40 -3t26 -21l-35 -799q-2 -13 -18 -22t-36.5 -13t-41.5 -1.5t-32 12.5z" />
<glyph unicode="&#xba;" horiz-adv-x="696" d="M17 621q0 87 26.5 157.5t69.5 121.5t96 80.5t106 35.5q61 10 113.5 -11.5t91 -65.5t60 -106.5t18.5 -136.5q-8 -87 -39 -148.5t-79 -101.5t-110.5 -58.5t-133.5 -18.5q-108 0 -163.5 58.5t-55.5 193.5zM96 589q3 -63 35.5 -95.5t79.5 -39t101 10t100.5 51t78.5 84 t34 108.5q1 28 -6.5 64.5t-27 70.5t-53.5 60.5t-87 33.5q-19 -1 -46.5 -8t-57 -23t-58.5 -42.5t-50.5 -64.5t-34 -90t-8.5 -120z" />
<glyph unicode="&#xbb;" horiz-adv-x="1674" d="M124 990l126 122q82 -58 155 -92t140 -54t131 -33t128 -30t128 -46t134 -79q-64 -78 -163 -157t-208 -161t-215 -167t-186 -173q-84 32 -110 67t-11 71t63 74t112 78t136 81t135 82t109 84t58 85zM692 1060l126 122q82 -58 155 -92t140 -54t131 -33t128 -30t128 -46 t134 -79q-64 -78 -163 -157t-208 -161t-215 -167t-186 -173q-84 32 -110 67t-11 71t63 74t112 78t136 81t135 82t109 84t58 85z" />
<glyph unicode="&#xbc;" horiz-adv-x="1588" d="M32 84q4 16 49 92t117 189t163 254t186 286t186 284t165 250t121 182t55 81q10 -6 30 -8t36 -11t19 -32t-23 -67q-46 -84 -122 -217t-168 -288t-194 -321t-202 -317t-190 -273t-160 -192q-18 0 -31 14t-21 32t-12 36t-4 26zM156 392q1 17 2.5 53.5t3.5 85.5t4 106.5 t5 117t5 117t4.5 106t3.5 85t3 53.5q-3 27 14.5 34t41.5 7q20 0 37 -3t24 -19l-32 -722q-2 -11 -16.5 -19.5t-33 -11.5t-37.5 -1t-29 11zM326 526q60 73 118.5 146.5t112.5 139t102.5 116.5t90 77t73.5 22t54 -48.5t31 -134t4 -235.5l157 3q0 -5 0.5 -18.5t0.5 -28.5 t-3 -26.5t-10 -12.5l-118 -7q-7 -18 -10.5 -52.5t-6 -78t-3.5 -91t0 -93t1 -83.5v-61q-10 0 -29.5 -4t-39.5 -6.5t-36.5 -0.5t-19.5 16l-8 425q-63 0 -114 -3.5t-99.5 -7t-99.5 -6.5t-114 -3q-20 0 -27 15.5t-7 40.5zM485 566q73 -1 147.5 7.5t154.5 16.5v306z" />
<glyph unicode="&#xbd;" horiz-adv-x="1660" d="M58 104q4 16 49 92t117 189t163 254t186 286t186 284t165 250t121 182t55 81q10 -6 30 -8t36 -11t19 -32t-23 -67q-46 -84 -122 -217t-168 -288t-194 -321t-202 -317t-190 -273t-160 -192q-18 0 -31 14t-21 32t-12 36t-4 26zM66 372q1 17 2.5 54t4 86t4.5 107t5.5 117.5 t5.5 118t4.5 107t4 85.5t2.5 54q-3 26 16.5 33t45.5 7q21 0 39.5 -2.5t26.5 -18.5l-36 -726q-1 -12 -17 -20.5t-36 -11.5t-41 -1t-31 11zM508 771q2 37 28.5 72.5t68 67.5t95.5 57.5t110 40.5t111 16.5t99 -12.5t73 -47.5t36 -88.5q0 -55 -19.5 -119.5t-52 -133t-74.5 -137 t-86 -132t-88.5 -118t-80.5 -93.5q73 -6 136 3t122 22t119.5 25.5t131.5 12.5q19 0 36 -8.5t17 -30.5q0 -23 -16 -39.5t-39.5 -28t-52 -18t-54 -10t-44 -4.5t-22.5 -2q-19 -4 -70.5 -14t-117.5 -19t-135 -14.5t-123.5 -1t-83.5 22.5t-13 55q39 34 90 86.5t105 116 t106.5 133.5t95 139.5t71.5 134.5t36 116.5t-12.5 86.5t-73.5 46q-68 0 -121.5 -28.5t-102 -63t-97 -63t-108.5 -28.5z" />
<glyph unicode="&#xbe;" horiz-adv-x="2208" d="M30 1209q0 10 0.5 24.5t5 29.5t13 27.5t23.5 17.5q79 18 162 39t162.5 36.5t152 23.5t132 2t101.5 -29t60 -69q0 -48 -28 -92t-68 -85t-84.5 -76t-75.5 -62q128 -6 190 -39.5t73.5 -83.5t-21 -110t-92.5 -121t-141 -116.5t-166.5 -95t-169 -58t-149.5 -3.5 q-21 0 -40.5 9.5t-19.5 35.5q124 20 230 60.5t187 91t134.5 105t74 101t5 80t-73.5 42t-160 -13t-255 -84.5l-65 80q37 18 90.5 43t113 56.5t120 65.5t111.5 68.5t86 67t43.5 59.5t-15.5 47t-90 30q-82 0 -149.5 -16t-130.5 -36t-129.5 -36t-146.5 -16zM504 54q4 16 49 92 t117 189t163 254t186 286t186 284t165 250t121 182t55 81q10 -6 30 -8t36 -11t19 -32t-23 -67q-46 -84 -122 -217t-168 -288t-194 -321t-202 -317t-190 -273t-160 -192q-18 0 -31 14t-21 32t-12 36t-4 26zM691 591q66 82 129.5 165.5t122 157.5t111 132t97.5 87.5t80 25 t58.5 -55t33.5 -152t5 -266.5l170 4q0 -7 0.5 -22.5t0.5 -32t-3.5 -29.5t-10.5 -14l-128 -8q-8 -20 -12 -59.5t-6.5 -89t-3.5 -103.5t0 -105t1 -94v-69q-11 0 -32 -4.5t-43 -8t-39.5 -0.5t-21.5 18l-8 482q-68 0 -123.5 -4t-108.5 -8t-108 -7.5t-124 -3.5q-21 0 -29 18 t-8 46zM864 636q79 -1 160 8.5t168 18.5v347z" />
<glyph unicode="&#xbf;" horiz-adv-x="1294" d="M79 295q-5 83 62.5 179.5t219 202t400.5 213.5l-292 81v56q22 2 78 5t125 2t140 -7.5t123.5 -25.5t78 -50t2.5 -82q-44 -26 -120 -65t-162.5 -87t-175.5 -103t-160 -112t-114.5 -113t-38.5 -106t66 -93t199 -74q91 0 178 12.5t173.5 29t172.5 29.5t173 13q14 0 30.5 -11 t31.5 -26.5t27.5 -36t16.5 -38.5q-195 -61 -376.5 -83.5t-334.5 -11.5t-271 51t-182.5 104t-69.5 147zM528 1552q0 28 12 50t36.5 33.5t58.5 1.5q89 0 89 -86q0 -84 -89 -84q-36 -10 -59.5 1.5t-35.5 33.5t-12 50z" />
<glyph unicode="&#xc0;" horiz-adv-x="1640" d="M26 -4q16 40 45 117t66 178t79 217t86 236t87 237t79 217t64 177t44 119q16 46 22 85t19 67t40 43t85 15q94 -74 160 -179t117 -214t96 -209t97 -162q16 -24 45 -27t65 2t73 15t67 13t49 -6t19 -41q8 -42 -6 -66t-42 -38t-62 -20t-63 -10t-48 -10t-15 -18q24 -74 53 -164 t65 -180t78 -174t92 -144q0 -24 -21 -52t-50 -48t-56 -28t-39 6l-352 744l-682 -168q-10 -40 -30 -117t-48 -164t-62 -169t-72 -130q-8 -10 -33 -8t-51 12t-45 23t-15 23zM458 716q72 0 144 15t140 38t132 49t122 48q-16 36 -44 109t-65 155t-80 160t-87 124 q-26 -102 -60 -198t-70 -184t-71 -168t-61 -148zM593 2050q3 24 15 37t31 10t45 -33l168 -164l-42 -108q-64 44 -102 72t-60 50t-34 41t-20 45q-4 26 -1 50z" />
<glyph unicode="&#xc1;" horiz-adv-x="1640" d="M40 10q16 40 45 117t66 178t79 217t86 236t87 237t79 217t64 177t44 119q16 46 22 85t19 67t40 43t85 15q94 -74 160 -179t117 -214t96 -209t97 -162q16 -24 45 -27t65 2t73 15t67 13t49 -6t19 -41q8 -42 -6 -66t-42 -38t-62 -20t-63 -10t-48 -10t-15 -18q24 -74 53 -164 t65 -180t78 -174t92 -144q0 -24 -21 -52t-50 -48t-56 -28t-39 6l-352 744l-682 -168q-10 -40 -30 -117t-48 -164t-62 -169t-72 -130q-8 -10 -33 -8t-51 12t-45 23t-15 23zM472 730q72 0 144 15t140 38t132 49t122 48q-16 36 -44 109t-65 155t-80 160t-87 124 q-26 -102 -60 -198t-70 -184t-71 -168t-61 -148zM548 1834l172 196q26 32 50 42t40 3t26 -26t10 -41q-6 -24 -15 -43t-31 -45t-64 -63t-110 -93z" />
<glyph unicode="&#xc2;" horiz-adv-x="1640" d="M40 10q16 40 45 117t66 178t79 217t86 236t87 237t79 217t64 177t44 119q16 46 22 85t19 67t40 43t85 15q94 -74 160 -179t117 -214t96 -209t97 -162q16 -24 45 -27t65 2t73 15t67 13t49 -6t19 -41q8 -42 -6 -66t-42 -38t-62 -20t-63 -10t-48 -10t-15 -18q24 -74 53 -164 t65 -180t78 -174t92 -144q0 -24 -21 -52t-50 -48t-56 -28t-39 6l-352 744l-682 -168q-10 -40 -30 -117t-48 -164t-62 -169t-72 -130q-8 -10 -33 -8t-51 12t-45 23t-15 23zM394 1778q0 20 22 53t56 71t76 78t82 73t74 55t52 24l336 -282q16 -30 15 -62t-14 -55t-37 -31 t-56 10l-262 238q-50 -38 -85 -71t-61 -64t-48 -62t-46 -65q-46 0 -75 13t-29 77zM472 730q72 0 144 15t140 38t132 49t122 48q-16 36 -44 109t-65 155t-80 160t-87 124q-26 -102 -60 -198t-70 -184t-71 -168t-61 -148z" />
<glyph unicode="&#xc3;" horiz-adv-x="1640" d="M40 10q16 40 45 117t66 178t79 217t86 236t87 237t79 217t64 177t44 119q16 46 22 85t19 67t40 43t85 15q94 -74 160 -179t117 -214t96 -209t97 -162q16 -24 45 -27t65 2t73 15t67 13t49 -6t19 -41q8 -42 -6 -66t-42 -38t-62 -20t-63 -10t-48 -10t-15 -18q24 -74 53 -164 t65 -180t78 -174t92 -144q0 -24 -21 -52t-50 -48t-56 -28t-39 6l-352 744l-682 -168q-10 -40 -30 -117t-48 -164t-62 -169t-72 -130q-8 -10 -33 -8t-51 12t-45 23t-15 23zM330 1846q38 120 113 212t159 126q34 14 65 2t62 -37t60 -58t60 -63t64 -50t69 -20q56 0 87 17t57 50 t57 81t87 108q16 0 32 -27t16 -47q10 -56 -12 -110t-65 -98t-102 -74t-121 -39t-121 7t-105 66q-50 44 -88 74t-77 27t-86 -48t-119 -151q-8 0 -22 2t-28 8t-26 16t-16 26zM472 730q72 0 144 15t140 38t132 49t122 48q-16 36 -44 109t-65 155t-80 160t-87 124 q-26 -102 -60 -198t-70 -184t-71 -168t-61 -148z" />
<glyph unicode="&#xc4;" horiz-adv-x="1640" d="M40 10q16 40 45 117t66 178t79 217t86 236t87 237t79 217t64 177t44 119q16 46 22 85t19 67t40 43t85 15q94 -74 160 -179t117 -214t96 -209t97 -162q16 -24 45 -27t65 2t73 15t67 13t49 -6t19 -41q8 -42 -6 -66t-42 -38t-62 -20t-63 -10t-48 -10t-15 -18q24 -74 53 -164 t65 -180t78 -174t92 -144q0 -24 -21 -52t-50 -48t-56 -28t-39 6l-352 744l-682 -168q-10 -40 -30 -117t-48 -164t-62 -169t-72 -130q-8 -10 -33 -8t-51 12t-45 23t-15 23zM472 730q72 0 144 15t140 38t132 49t122 48q-16 36 -44 109t-65 155t-80 160t-87 124 q-26 -102 -60 -198t-70 -184t-71 -168t-61 -148zM495 1886q-9 34 8 65t49 54t58 23q52 0 78 -38t26 -78q0 -30 -16 -50t-39 -31t-50 -12t-49 9q-56 24 -65 58zM805 1898q-9 34 8 65t49 54t58 23q52 0 78 -38t26 -78q0 -30 -16 -50t-39 -31t-50 -12t-49 9q-56 24 -65 58z" />
<glyph unicode="&#xc5;" horiz-adv-x="1640" d="M40 10q16 40 45 117t66 178t79 217t86 236t87 237t79 217t64 177t44 119q16 46 22 85t19 67t40 43t85 15q94 -74 160 -179t117 -214t96 -209t97 -162q16 -24 45 -27t65 2t73 15t67 13t49 -6t19 -41q8 -42 -6 -66t-42 -38t-62 -20t-63 -10t-48 -10t-15 -18q24 -74 53 -164 t65 -180t78 -174t92 -144q0 -24 -21 -52t-50 -48t-56 -28t-39 6l-352 744l-682 -168q-10 -40 -30 -117t-48 -164t-62 -169t-72 -130q-8 -10 -33 -8t-51 12t-45 23t-15 23zM472 730q72 0 144 15t140 38t132 49t122 48q-16 36 -44 109t-65 155t-80 160t-87 124 q-26 -102 -60 -198t-70 -184t-71 -168t-61 -148zM478 2052q0 84 30 133t76 69t100 14t102 -34t82 -73t40 -101q0 -126 -52 -167t-154 -41q-32 0 -71 12t-73 37t-57 63t-23 88zM576 2087q-8 -43 30 -105q46 -38 89 -42t71 16t37 59t-13 87q-42 46 -90 56t-82 -9t-42 -62z" />
<glyph unicode="&#xc6;" horiz-adv-x="2148" d="M38 42q-2 34 15 107t47 171t70 215t86 240t94 243t93 225t84 188t69 131q52 116 112 173t117 67t106 -19t79 -83q52 -14 125 -19t154 -5t167 1t166 -1t149 -11t119 -27v-124q-68 -10 -157 -7t-189 6t-206 0t-206 -25q-26 -122 -35 -205t-9 -157t5 -156t5 -200 q128 0 220 9t177 21t177 21t218 9v-136l-774 -94l14 -410q124 0 219 3t173 8t145 10t137 10t149 8t179 3q12 -6 9 -24t-20 -41t-49 -44t-78 -33q-274 -30 -518 -50t-484 -40q-32 10 -56 16t-28 10l-62 604l-440 -64q-22 -46 -51 -126t-60 -167t-60 -164t-53 -117 q-6 -12 -29 -9t-49 12t-46 22t-20 25zM482 756q72 0 120 6t88 14t82 15t100 11q-10 42 -6 127t10 191t6 223t-20 227q-58 -88 -118 -197t-113 -222t-92 -217t-57 -178z" />
<glyph unicode="&#xc7;" horiz-adv-x="1812" d="M54 680q0 224 75 414t205 330t306 219t378 79q82 0 137 -10t89 -42t49 -90t15 -156q-116 108 -247 134t-257 -11t-239 -125t-195 -207t-125 -258t-29 -275q26 -142 80 -239t133 -156t180 -84t219 -25q148 12 259 54t204 100t178 127t179 135q18 0 37 -2t35 -9t26 -22 t10 -39q-100 -96 -215 -192t-244 -171t-270 -120t-289 -39q-132 0 -255 49t-219 139t-153 215t-57 277zM660 -442q80 -8 159 6t138 37t89 51t15 50t-87 31t-216 -3q-30 0 -47 30t-26 72t-11 88t-2 80q-8 70 9 83t39 0t38 -38t6 -33q0 -34 -1 -65t3 -55t15 -38t33 -14 q116 12 191 -3t113 -48t44 -78t-16 -91t-67 -87t-108 -67t-141 -30t-164 24q-6 0 -6 13t1 30t2 33t-3 22z" />
<glyph unicode="&#xc8;" horiz-adv-x="1514" d="M76 0l10 1694q52 -14 143 -17t200 -1t228 6t226 4t195 -7t138 -25v-124q-68 -10 -186 -12t-252 -3t-268 -8t-234 -29q-18 -82 -26 -137t-11 -96t-2 -77t4 -77t6 -95t3 -132q128 0 249 13t240 30t239 30t246 13v-136l-956 -120l14 -508q188 0 340 11t289 23t271 23t284 11 q0 -22 -12 -53t-32 -56t-45 -38t-49 5q-138 -16 -305 -31t-338 -30t-330 -28t-279 -23zM503 2020q3 24 15 37t31 10t45 -33l168 -164l-42 -108q-64 44 -102 72t-60 50t-34 41t-20 45q-4 26 -1 50z" />
<glyph unicode="&#xc9;" horiz-adv-x="1514" d="M76 0l10 1694q52 -14 143 -17t200 -1t228 6t226 4t195 -7t138 -25v-124q-68 -10 -186 -12t-252 -3t-268 -8t-234 -29q-18 -82 -26 -137t-11 -96t-2 -77t4 -77t6 -95t3 -132q128 0 249 13t240 30t239 30t246 13v-136l-956 -120l14 -508q188 0 340 11t289 23t271 23t284 11 q0 -22 -12 -53t-32 -56t-45 -38t-49 5q-138 -16 -305 -31t-338 -30t-330 -28t-279 -23zM496 1852l172 196q26 32 50 42t40 3t26 -26t10 -41q-6 -24 -15 -43t-31 -45t-64 -63t-110 -93z" />
<glyph unicode="&#xca;" horiz-adv-x="1514" d="M76 0l10 1694q52 -14 143 -17t200 -1t228 6t226 4t195 -7t138 -25v-124q-68 -10 -186 -12t-252 -3t-268 -8t-234 -29q-18 -82 -26 -137t-11 -96t-2 -77t4 -77t6 -95t3 -132q128 0 249 13t240 30t239 30t246 13v-136l-956 -120l14 -508q188 0 340 11t289 23t271 23t284 11 q0 -22 -12 -53t-32 -56t-45 -38t-49 5q-138 -16 -305 -31t-338 -30t-330 -28t-279 -23zM366 1822q0 20 22 53t56 71t76 78t82 73t74 55t52 24l336 -282q16 -30 15 -62t-14 -55t-37 -31t-56 10l-262 238q-50 -38 -85 -71t-61 -64t-48 -62t-46 -65q-46 0 -75 13t-29 77z" />
<glyph unicode="&#xcb;" horiz-adv-x="1514" d="M76 0l10 1694q52 -14 143 -17t200 -1t228 6t226 4t195 -7t138 -25v-124q-68 -10 -186 -12t-252 -3t-268 -8t-234 -29q-18 -82 -26 -137t-11 -96t-2 -77t4 -77t6 -95t3 -132q128 0 249 13t240 30t239 30t246 13v-136l-956 -120l14 -508q188 0 340 11t289 23t271 23t284 11 q0 -22 -12 -53t-32 -56t-45 -38t-49 5q-138 -16 -305 -31t-338 -30t-330 -28t-279 -23zM447 1858q-9 34 8 65t49 54t58 23q52 0 78 -38t26 -78q0 -30 -16 -50t-39 -31t-50 -12t-49 9q-56 24 -65 58zM757 1870q-9 34 8 65t49 54t58 23q52 0 78 -38t26 -78q0 -30 -16 -50 t-39 -31t-50 -12t-49 9q-56 24 -65 58z" />
<glyph unicode="&#xcc;" d="M29 2018q3 24 15 37t31 10t45 -33l168 -164l-42 -108q-64 44 -102 72t-60 50t-34 41t-20 45q-4 26 -1 50zM62 620q0 142 2 286t6 280t7 240t5 168t2 66q30 18 53 30t53 12q18 0 39 -8t21 -34l12 -1620q0 -26 -21 -34t-39 -8q-30 0 -53 12t-53 30q-14 30 -21 115t-10 204 t-3 261z" />
<glyph unicode="&#xcd;" d="M30 1832l172 196q26 32 50 42t40 3t26 -26t10 -41q-6 -24 -15 -43t-31 -45t-64 -63t-110 -93zM62 620q0 142 2 286t6 280t7 240t5 168t2 66q30 18 53 30t53 12q18 0 39 -8t21 -34l12 -1620q0 -26 -21 -34t-39 -8q-30 0 -53 12t-53 30q-14 30 -21 115t-10 204t-3 261z" />
<glyph unicode="&#xce;" d="M-126 1814q0 20 22 53t56 71t76 78t82 73t74 55t52 24l336 -282q16 -30 15 -62t-14 -55t-37 -31t-56 10l-262 238q-50 -38 -85 -71t-61 -64t-48 -62t-46 -65q-46 0 -75 13t-29 77zM62 620q0 142 2 286t6 280t7 240t5 168t2 66q30 18 53 30t53 12q18 0 39 -8t21 -34 l12 -1620q0 -26 -21 -34t-39 -8q-30 0 -53 12t-53 30q-14 30 -21 115t-10 204t-3 261z" />
<glyph unicode="&#xcf;" d="M-97 1896q-9 34 8 65t49 54t58 23q52 0 78 -38t26 -78q0 -30 -16 -50t-39 -31t-50 -12t-49 9q-56 24 -65 58zM62 620q0 142 2 286t6 280t7 240t5 168t2 66q30 18 53 30t53 12q18 0 39 -8t21 -34l12 -1620q0 -26 -21 -34t-39 -8q-30 0 -53 12t-53 30q-14 30 -21 115 t-10 204t-3 261zM213 1908q-9 34 8 65t49 54t58 23q52 0 78 -38t26 -78q0 -30 -16 -50t-39 -31t-50 -12t-49 9q-56 24 -65 58z" />
<glyph unicode="&#xd0;" horiz-adv-x="1746" d="M24 548q0 34 29 47t59 17q18 2 35 4t35 6l-38 1078h34t53 -5t50 -17t29 -36q72 24 202 35t283 0t310 -49t286 -111t210 -185t81 -274q10 -110 -35 -217t-129 -207t-198 -190t-241 -164t-260 -131t-253 -90t-221 -41t-163 16v452l-32 -2q-16 0 -38 2t-41 9t-33 19t-14 34z M354 1476l38 -820l84 12t86 10q50 0 85 -17t46 -40t-3 -48t-60 -39l-238 -26v-330q82 0 197 34t240 94t248 143t220 178t157 200t60 211q-14 122 -84 211t-175 147t-231 89t-250 39t-235 -5t-185 -43z" />
<glyph unicode="&#xd1;" horiz-adv-x="1606" d="M62 66q12 102 19 231t10 271t2 292t-3 292t-5 271t-7 231q34 46 66 61t81 -15t124 -112t194 -230t292 -370t417 -530l-4 1158q26 50 54 69t74 19q42 0 60 -31t24 -73t3 -84t-3 -64q0 -80 6 -205t13 -271t12 -300t5 -290t-8 -241t-30 -153l-182 16q-94 164 -218 327 t-255 326t-260 326t-233 329q-12 -148 -14 -323t-3 -351t-5 -337t-20 -279q-34 -30 -61 -38t-65 -8q-36 0 -60 13t-20 73zM288 1786q38 120 113 212t159 126q34 14 65 2t62 -37t60 -58t60 -63t64 -50t69 -20q56 0 87 17t57 50t57 81t87 108q16 0 32 -27t16 -47 q10 -56 -12 -110t-65 -98t-102 -74t-121 -39t-121 7t-105 66q-50 44 -88 74t-77 27t-86 -48t-119 -151q-8 0 -22 2t-28 8t-26 16t-16 26z" />
<glyph unicode="&#xd2;" horiz-adv-x="1716" d="M56 748q-10 176 44 350t157 312t249 221t322 77q146 10 289 -49t258 -174t189 -278t80 -361q0 -412 -197 -611t-599 -199q-170 0 -315 40t-251 125t-166 220t-60 327zM260 788q0 -298 149 -444t445 -146q148 0 261 45t189 128t115 198t39 255q-6 164 -57 295t-135 224 t-194 143t-236 50q-82 4 -159 -29t-142 -89t-119 -132t-90 -160t-54 -171t-12 -167zM647 2036q3 24 15 37t31 10t45 -33l168 -164l-42 -108q-64 44 -102 72t-60 50t-34 41t-20 45q-4 26 -1 50z" />
<glyph unicode="&#xd3;" horiz-adv-x="1716" d="M56 748q-10 176 44 350t157 312t249 221t322 77q146 10 289 -49t258 -174t189 -278t80 -361q0 -412 -197 -611t-599 -199q-170 0 -315 40t-251 125t-166 220t-60 327zM260 788q0 -298 149 -444t445 -146q148 0 261 45t189 128t115 198t39 255q-6 164 -57 295t-135 224 t-194 143t-236 50q-82 4 -159 -29t-142 -89t-119 -132t-90 -160t-54 -171t-12 -167zM664 1878l172 196q26 32 50 42t40 3t26 -26t10 -41q-6 -24 -15 -43t-31 -45t-64 -63t-110 -93z" />
<glyph unicode="&#xd4;" horiz-adv-x="1716" d="M56 748q-10 176 44 350t157 312t249 221t322 77q146 10 289 -49t258 -174t189 -278t80 -361q0 -412 -197 -611t-599 -199q-170 0 -315 40t-251 125t-166 220t-60 327zM260 788q0 -298 149 -444t445 -146q148 0 261 45t189 128t115 198t39 255q-6 164 -57 295t-135 224 t-194 143t-236 50q-82 4 -159 -29t-142 -89t-119 -132t-90 -160t-54 -171t-12 -167zM466 1846q0 20 22 53t56 71t76 78t82 73t74 55t52 24l336 -282q16 -30 15 -62t-14 -55t-37 -31t-56 10l-262 238q-50 -38 -85 -71t-61 -64t-48 -62t-46 -65q-46 0 -75 13t-29 77z" />
<glyph unicode="&#xd5;" horiz-adv-x="1716" d="M56 748q-10 176 44 350t157 312t249 221t322 77q146 10 289 -49t258 -174t189 -278t80 -361q0 -412 -197 -611t-599 -199q-170 0 -315 40t-251 125t-166 220t-60 327zM260 788q0 -298 149 -444t445 -146q148 0 261 45t189 128t115 198t39 255q-6 164 -57 295t-135 224 t-194 143t-236 50q-82 4 -159 -29t-142 -89t-119 -132t-90 -160t-54 -171t-12 -167zM358 1778q38 120 113 212t159 126q34 14 65 2t62 -37t60 -58t60 -63t64 -50t69 -20q56 0 87 17t57 50t57 81t87 108q16 0 32 -27t16 -47q10 -56 -12 -110t-65 -98t-102 -74t-121 -39 t-121 7t-105 66q-50 44 -88 74t-77 27t-86 -48t-119 -151q-8 0 -22 2t-28 8t-26 16t-16 26z" />
<glyph unicode="&#xd6;" horiz-adv-x="1716" d="M56 748q-10 176 44 350t157 312t249 221t322 77q146 10 289 -49t258 -174t189 -278t80 -361q0 -412 -197 -611t-599 -199q-170 0 -315 40t-251 125t-166 220t-60 327zM260 788q0 -298 149 -444t445 -146q148 0 261 45t189 128t115 198t39 255q-6 164 -57 295t-135 224 t-194 143t-236 50q-82 4 -159 -29t-142 -89t-119 -132t-90 -160t-54 -171t-12 -167zM567 1880q-9 34 8 65t49 54t58 23q52 0 78 -38t26 -78q0 -30 -16 -50t-39 -31t-50 -12t-49 9q-56 24 -65 58zM877 1892q-9 34 8 65t49 54t58 23q52 0 78 -38t26 -78q0 -30 -16 -50t-39 -31 t-50 -12t-49 9q-56 24 -65 58z" />
<glyph unicode="&#xd7;" horiz-adv-x="1204" d="M190 938l106 114q54 -68 89 -112t57 -74t37 -50t30 -38t34 -38t51 -50q24 32 55 78t65 97t71 102t75 95q42 0 66 -29t24 -55q-32 -70 -67 -121t-67 -92t-59 -79t-43 -82q42 -30 91 -78t93 -96t79 -91t49 -63q0 -8 -8 -22t-19 -28t-24 -26t-23 -18q-34 18 -72 60t-79 93 t-86 102t-93 85q-26 -30 -65 -78t-82 -98t-83 -94t-68 -64q-10 -2 -27 2t-35 12t-34 19t-22 23q8 6 46 48t85 98t92 113t65 95q-86 96 -152 170q-28 32 -56 62t-49 54t-34 39z" />
<glyph unicode="&#xd8;" horiz-adv-x="1716" d="M56 748q-10 176 44 350t157 312t249 221t322 77q146 10 289 -49t258 -174t189 -278t80 -361q0 -412 -197 -611t-599 -199q-170 0 -315 40t-251 125t-166 220t-60 327zM260 788q0 -298 149 -444t445 -146q148 0 261 45t189 128t115 198t39 255q-6 164 -57 295t-135 224 t-194 143t-236 50q-82 4 -159 -29t-142 -89t-119 -132t-90 -160t-54 -171t-12 -167zM286 122q4 16 49 92t117 189t163 254t186 286t186 284t165 250t121 182t55 81q10 -6 30 -8t36 -11t19 -32t-23 -67q-46 -84 -122 -217t-168 -288t-194 -321t-202 -317t-190 -273t-160 -192 q-18 0 -31 14t-21 32t-12 36t-4 26z" />
<glyph unicode="&#xd9;" horiz-adv-x="1438" d="M49 701q5 131 24 268t40 268t41 248t28 207q8 2 32 3t32 1q68 8 89 -48t13 -155t-33 -229t-49 -269t-37 -275t4 -245t75 -182t174 -85q160 -6 270 56t183 170t115 252t64 303t29 323t11 312q12 38 32 55t44 19t50 -10t54 -32q12 -178 8 -382t-12 -415t-15 -420t-1 -399 q0 -28 -26 -37t-59 -7t-63 11t-36 19l26 320q-102 -88 -187 -153t-170 -106t-177 -59t-208 -10q-116 14 -190 73t-115 151t-53 210t-7 249zM543 1924q3 24 15 37t31 10t45 -33l168 -164l-42 -108q-64 44 -102 72t-60 50t-34 41t-20 45q-4 26 -1 50z" />
<glyph unicode="&#xda;" horiz-adv-x="1438" d="M49 701q5 131 24 268t40 268t41 248t28 207q8 2 32 3t32 1q68 8 89 -48t13 -155t-33 -229t-49 -269t-37 -275t4 -245t75 -182t174 -85q160 -6 270 56t183 170t115 252t64 303t29 323t11 312q12 38 32 55t44 19t50 -10t54 -32q12 -178 8 -382t-12 -415t-15 -420t-1 -399 q0 -28 -26 -37t-59 -7t-63 11t-36 19l26 320q-102 -88 -187 -153t-170 -106t-177 -59t-208 -10q-116 14 -190 73t-115 151t-53 210t-7 249zM612 1748l172 196q26 32 50 42t40 3t26 -26t10 -41q-6 -24 -15 -43t-31 -45t-64 -63t-110 -93z" />
<glyph unicode="&#xdb;" horiz-adv-x="1438" d="M49 701q5 131 24 268t40 268t41 248t28 207q8 2 32 3t32 1q68 8 89 -48t13 -155t-33 -229t-49 -269t-37 -275t4 -245t75 -182t174 -85q160 -6 270 56t183 170t115 252t64 303t29 323t11 312q12 38 32 55t44 19t50 -10t54 -32q12 -178 8 -382t-12 -415t-15 -420t-1 -399 q0 -28 -26 -37t-59 -7t-63 11t-36 19l26 320q-102 -88 -187 -153t-170 -106t-177 -59t-208 -10q-116 14 -190 73t-115 151t-53 210t-7 249zM388 1898q0 20 22 53t56 71t76 78t82 73t74 55t52 24l336 -282q16 -30 15 -62t-14 -55t-37 -31t-56 10l-262 238q-50 -38 -85 -71 t-61 -64t-48 -62t-46 -65q-46 0 -75 13t-29 77z" />
<glyph unicode="&#xdc;" horiz-adv-x="1438" d="M49 701q5 131 24 268t40 268t41 248t28 207q8 2 32 3t32 1q68 8 89 -48t13 -155t-33 -229t-49 -269t-37 -275t4 -245t75 -182t174 -85q160 -6 270 56t183 170t115 252t64 303t29 323t11 312q12 38 32 55t44 19t50 -10t54 -32q12 -178 8 -382t-12 -415t-15 -420t-1 -399 q0 -28 -26 -37t-59 -7t-63 11t-36 19l26 320q-102 -88 -187 -153t-170 -106t-177 -59t-208 -10q-116 14 -190 73t-115 151t-53 210t-7 249zM425 1808q-9 34 8 65t49 54t58 23q52 0 78 -38t26 -78q0 -30 -16 -50t-39 -31t-50 -12t-49 9q-56 24 -65 58zM735 1820q-9 34 8 65 t49 54t58 23q52 0 78 -38t26 -78q0 -30 -16 -50t-39 -31t-50 -12t-49 9q-56 24 -65 58z" />
<glyph unicode="&#xdd;" horiz-adv-x="1368" d="M40 1610q6 16 24 25t39 11t29 2q52 0 105 -26t131 -99t193 -203t289 -340q76 222 129 363t94 224t75 117t74 40q24 0 47 -5t33 -37q-52 -110 -99 -243t-93 -279t-92 -301t-96 -307t-107 -298t-121 -276q-16 -12 -47 -13t-60 9t-48 30t-9 52q10 16 27 67t38 120t44 151 t44 161t40 147t31 112l-696 752q-24 28 -18 44zM630 1722l172 196q26 32 50 42t40 3t26 -26t10 -41q-6 -24 -15 -43t-31 -45t-64 -63t-110 -93z" />
<glyph unicode="&#xde;" horiz-adv-x="1294" d="M60 1614q-8 56 23 80t70 24t71 -21t26 -57l8 -594q78 102 181 188t211 143t212 78t186 -6t132 -108t50 -227q0 -100 -47 -199t-126 -189t-180 -167t-210 -130t-217 -79t-200 -14l4 -318q0 -28 -23 -43t-52 -18t-57 8t-40 39l-6 394zM268 580q-4 -54 49 -65t135 12t182 77 t192 129t163 166t95 191q6 84 -29 126t-94 50t-137 -15t-158 -69t-156 -112t-134 -145t-88 -167t-20 -178z" />
<glyph unicode="&#xdf;" horiz-adv-x="1820" d="M182 1462v36t18 60t63 63t133 45q138 24 278 22t263 -25t221 -65t156 -99t66 -124t-50 -141t-190 -152t-354 -154q306 -16 498 -61t290 -107t113 -137t-34 -154t-150 -156t-234 -143t-288 -116t-313 -76l-18 194q286 42 468 112t264 149t67 155t-124 129t-307 72 t-482 -17l-12 264q108 22 215 50t194 64t141 80t54 98q0 46 -30 79t-77 56t-106 38t-117 23t-108 11t-80 3h-52t-90 -3t-90 -12t-50 -27l38 -1858h-172q16 110 22 252t5 301t-7 329t-13 336t-13 321t-6 285z" />
<glyph unicode="&#xe0;" horiz-adv-x="1302" d="M54 228q-22 112 11 233t102 236t168 216t211 172t229 104t225 13q82 0 127 -54t68 -145t28 -210t6 -248t5 -258t22 -239q-2 -4 -19 -24t-43 -32t-59 -5t-65 57q-12 20 -15 71t-2 109t2 112t-5 78q-58 -90 -134 -163t-167 -124t-198 -75t-225 -14q-42 0 -90 10t-89 32 t-67 58t-26 90zM221 333q3 -65 42 -110t123 -59q116 -2 222 59t192 153t145 201t80 205t-1 163t-100 77q-78 6 -162 -24t-163 -85t-149 -128t-122 -152t-81 -157t-26 -143zM675 1560q3 24 15 37t31 10t45 -33l168 -164l-42 -108q-64 44 -102 72t-60 50t-34 41t-20 45 q-4 26 -1 50z" />
<glyph unicode="&#xe1;" horiz-adv-x="1302" d="M54 228q-22 112 11 233t102 236t168 216t211 172t229 104t225 13q82 0 127 -54t68 -145t28 -210t6 -248t5 -258t22 -239q-2 -4 -19 -24t-43 -32t-59 -5t-65 57q-12 20 -15 71t-2 109t2 112t-5 78q-58 -90 -134 -163t-167 -124t-198 -75t-225 -14q-42 0 -90 10t-89 32 t-67 58t-26 90zM221 333q3 -65 42 -110t123 -59q116 -2 222 59t192 153t145 201t80 205t-1 163t-100 77q-78 6 -162 -24t-163 -85t-149 -128t-122 -152t-81 -157t-26 -143zM614 1366l172 196q26 32 50 42t40 3t26 -26t10 -41q-6 -24 -15 -43t-31 -45t-64 -63t-110 -93z" />
<glyph unicode="&#xe2;" horiz-adv-x="1302" d="M54 228q-22 112 11 233t102 236t168 216t211 172t229 104t225 13q82 0 127 -54t68 -145t28 -210t6 -248t5 -258t22 -239q-2 -4 -19 -24t-43 -32t-59 -5t-65 57q-12 20 -15 71t-2 109t2 112t-5 78q-58 -90 -134 -163t-167 -124t-198 -75t-225 -14q-42 0 -90 10t-89 32 t-67 58t-26 90zM221 333q3 -65 42 -110t123 -59q116 -2 222 59t192 153t145 201t80 205t-1 163t-100 77q-78 6 -162 -24t-163 -85t-149 -128t-122 -152t-81 -157t-26 -143zM396 1398q0 20 22 53t56 71t76 78t82 73t74 55t52 24l336 -282q16 -30 15 -62t-14 -55t-37 -31 t-56 10l-262 238q-50 -38 -85 -71t-61 -64t-48 -62t-46 -65q-46 0 -75 13t-29 77z" />
<glyph unicode="&#xe3;" horiz-adv-x="1302" d="M54 228q-22 112 11 233t102 236t168 216t211 172t229 104t225 13q82 0 127 -54t68 -145t28 -210t6 -248t5 -258t22 -239q-2 -4 -19 -24t-43 -32t-59 -5t-65 57q-12 20 -15 71t-2 109t2 112t-5 78q-58 -90 -134 -163t-167 -124t-198 -75t-225 -14q-42 0 -90 10t-89 32 t-67 58t-26 90zM221 333q3 -65 42 -110t123 -59q116 -2 222 59t192 153t145 201t80 205t-1 163t-100 77q-78 6 -162 -24t-163 -85t-149 -128t-122 -152t-81 -157t-26 -143zM282 1398q38 120 113 212t159 126q34 14 65 2t62 -37t60 -58t60 -63t64 -50t69 -20q56 0 87 17 t57 50t57 81t87 108q16 0 32 -27t16 -47q10 -56 -12 -110t-65 -98t-102 -74t-121 -39t-121 7t-105 66q-50 44 -88 74t-77 27t-86 -48t-119 -151q-8 0 -22 2t-28 8t-26 16t-16 26z" />
<glyph unicode="&#xe4;" horiz-adv-x="1302" d="M54 228q-22 112 11 233t102 236t168 216t211 172t229 104t225 13q82 0 127 -54t68 -145t28 -210t6 -248t5 -258t22 -239q-2 -4 -19 -24t-43 -32t-59 -5t-65 57q-12 20 -15 71t-2 109t2 112t-5 78q-58 -90 -134 -163t-167 -124t-198 -75t-225 -14q-42 0 -90 10t-89 32 t-67 58t-26 90zM221 333q3 -65 42 -110t123 -59q116 -2 222 59t192 153t145 201t80 205t-1 163t-100 77q-78 6 -162 -24t-163 -85t-149 -128t-122 -152t-81 -157t-26 -143zM591 1364q-9 34 8 65t49 54t58 23q52 0 78 -38t26 -78q0 -30 -16 -50t-39 -31t-50 -12t-49 9 q-56 24 -65 58zM901 1376q-9 34 8 65t49 54t58 23q52 0 78 -38t26 -78q0 -30 -16 -50t-39 -31t-50 -12t-49 9q-56 24 -65 58z" />
<glyph unicode="&#xe5;" horiz-adv-x="1302" d="M54 228q-22 112 11 233t102 236t168 216t211 172t229 104t225 13q82 0 127 -54t68 -145t28 -210t6 -248t5 -258t22 -239q-2 -4 -19 -24t-43 -32t-59 -5t-65 57q-12 20 -15 71t-2 109t2 112t-5 78q-58 -90 -134 -163t-167 -124t-198 -75t-225 -14q-42 0 -90 10t-89 32 t-67 58t-26 90zM221 333q3 -65 42 -110t123 -59q116 -2 222 59t192 153t145 201t80 205t-1 163t-100 77q-78 6 -162 -24t-163 -85t-149 -128t-122 -152t-81 -157t-26 -143zM630 1534q0 84 30 133t76 69t100 14t102 -34t82 -73t40 -101q0 -126 -52 -167t-154 -41 q-32 0 -71 12t-73 37t-57 63t-23 88zM728 1569q-8 -43 30 -105q46 -38 89 -42t71 16t37 59t-13 87q-42 46 -90 56t-82 -9t-42 -62z" />
<glyph unicode="&#xe6;" horiz-adv-x="2062" d="M47 458q27 118 97 226t175 198t228 147t256 72t261 -25q86 72 191 112t225 38q68 2 156 -30t162 -89t119 -132t29 -159q0 -42 -43 -69t-116 -43t-170 -23t-204 -11t-217 -7t-208 -11q-56 -154 -33 -253t98 -151t186 -61t231 15t236 77t200 127q12 0 31 -8t37 -21t31 -28 t13 -27q-44 -76 -130 -139t-195 -105t-232 -61t-239 -9t-216 53t-164 125q-106 -80 -236 -122t-280 -26q-42 0 -90 10t-89 32t-67 58t-26 90q-34 112 -7 230zM215 364q5 -62 44 -109t121 -67q106 -2 206 46t182 128q-6 62 -2 122t20 126t45 141t75 163q-84 24 -169 10 t-163 -55t-146 -101t-117 -129t-75 -141t-21 -134zM1110 848l616 24q-12 76 -61 114t-117 49t-144 -3t-141 -42t-108 -66t-45 -76z" />
<glyph unicode="&#xe7;" horiz-adv-x="1476" d="M54 394q-10 104 49 227t160 238t232 206t266 132t260 15t217 -144q0 -26 -13 -46t-32 -38t-41 -32t-40 -28q-34 72 -90 100t-124 23t-144 -38t-150 -84t-140 -114t-115 -130t-75 -132t-20 -117q0 -88 34 -142t89 -84t126 -40t145 -10q152 4 273 37t209 70t146 65t84 22 q16 0 33 -2t30 -11t18 -26t-1 -47q-6 -38 -52 -73t-118 -65t-160 -55t-176 -42t-167 -25t-131 -4q-88 0 -190 20t-189 66t-145 121t-58 187zM426 -460q80 -8 159 6t138 37t89 51t15 50t-87 31t-216 -3q-30 0 -47 30t-26 72t-11 88t-2 80q-8 70 9 83t39 0t38 -38t6 -33 q0 -34 -1 -65t3 -55t15 -38t33 -14q116 12 191 -3t113 -48t44 -78t-16 -91t-67 -87t-108 -67t-141 -30t-164 24q-6 0 -6 13t1 30t2 33t-3 22z" />
<glyph unicode="&#xe8;" horiz-adv-x="1328" d="M54 328q-18 162 28 323t143 288t235 204t304 73q68 2 156 -30t162 -89t119 -132t29 -159q2 -42 -42 -69t-117 -43t-170 -23t-204 -11t-217 -7t-208 -11q-56 -154 -33 -253t98 -151t186 -61t231 15t236 77t200 127q12 0 31 -8t37 -21t31 -28t13 -27q-50 -86 -152 -154 t-230 -110t-267 -52t-261 20t-214 106t-124 206zM394 838l616 24q-10 76 -60 114t-118 49t-144 -3t-141 -42t-108 -66t-45 -76zM583 1562q3 24 15 37t31 10t45 -33l168 -164l-42 -108q-64 44 -102 72t-60 50t-34 41t-20 45q-4 26 -1 50z" />
<glyph unicode="&#xe9;" horiz-adv-x="1312" d="M54 328q-18 162 28 323t143 288t235 204t304 73q68 2 156 -30t162 -89t119 -132t29 -159q2 -42 -42 -69t-117 -43t-170 -23t-204 -11t-217 -7t-208 -11q-56 -154 -33 -253t98 -151t186 -61t231 15t236 77t200 127q12 0 31 -8t37 -21t31 -28t13 -27q-50 -86 -152 -154 t-230 -110t-267 -52t-261 20t-214 106t-124 206zM394 838l616 24q-10 76 -60 114t-118 49t-144 -3t-141 -42t-108 -66t-45 -76zM576 1386l172 196q26 32 50 42t40 3t26 -26t10 -41q-6 -24 -15 -43t-31 -45t-64 -63t-110 -93z" />
<glyph unicode="&#xea;" horiz-adv-x="1384" d="M54 328q-18 162 28 323t143 288t235 204t304 73q68 2 156 -30t162 -89t119 -132t29 -159q2 -42 -42 -69t-117 -43t-170 -23t-204 -11t-217 -7t-208 -11q-56 -154 -33 -253t98 -151t186 -61t231 15t236 77t200 127q12 0 31 -8t37 -21t31 -28t13 -27q-50 -86 -152 -154 t-230 -110t-267 -52t-261 20t-214 106t-124 206zM326 1364q0 20 22 53t56 71t76 78t82 73t74 55t52 24l336 -282q16 -30 15 -62t-14 -55t-37 -31t-56 10l-262 238q-50 -38 -85 -71t-61 -64t-48 -62t-46 -65q-46 0 -75 13t-29 77zM394 838l616 24q-10 76 -60 114t-118 49 t-144 -3t-141 -42t-108 -66t-45 -76z" />
<glyph unicode="&#xeb;" horiz-adv-x="1312" d="M54 328q-18 162 28 323t143 288t235 204t304 73q68 2 156 -30t162 -89t119 -132t29 -159q2 -42 -42 -69t-117 -43t-170 -23t-204 -11t-217 -7t-208 -11q-56 -154 -33 -253t98 -151t186 -61t231 15t236 77t200 127q12 0 31 -8t37 -21t31 -28t13 -27q-50 -86 -152 -154 t-230 -110t-267 -52t-261 20t-214 106t-124 206zM394 838l616 24q-10 76 -60 114t-118 49t-144 -3t-141 -42t-108 -66t-45 -76zM485 1500q-9 34 8 65t49 54t58 23q52 0 78 -38t26 -78q0 -30 -16 -50t-39 -31t-50 -12t-49 9q-56 24 -65 58zM795 1512q-9 34 8 65t49 54t58 23 q52 0 78 -38t26 -78q0 -30 -16 -50t-39 -31t-50 -12t-49 9q-56 24 -65 58z" />
<glyph unicode="&#xec;" d="M71 1622q3 24 15 37t31 10t45 -33l168 -164l-42 -108q-64 44 -102 72t-60 50t-34 41t-20 45q-4 26 -1 50zM134 58q8 -20 39 -32t67 -11t67 19t41 58q-10 282 -24 559t-32 523h-158v-1116z" />
<glyph unicode="&#xed;" d="M82 1402l172 196q26 32 50 42t40 3t26 -26t10 -41q-6 -24 -15 -43t-31 -45t-64 -63t-110 -93zM134 58v1116h158q18 -246 32 -523t24 -559q-10 -40 -41 -58t-67 -19t-67 11t-39 32z" />
<glyph unicode="&#xee;" d="M-172 1364q0 20 22 53t56 71t76 78t82 73t74 55t52 24l336 -282q16 -30 15 -62t-14 -55t-37 -31t-56 10l-262 238q-50 -38 -85 -71t-61 -64t-48 -62t-46 -65q-46 0 -75 13t-29 77zM134 58v1116h158q18 -246 32 -523t24 -559q-10 -40 -41 -58t-67 -19t-67 11t-39 32z" />
<glyph unicode="&#xef;" d="M-65 1550q-9 34 8 65t49 54t58 23q52 0 78 -38t26 -78q0 -30 -16 -50t-39 -31t-50 -12t-49 9q-56 24 -65 58zM134 58v1116h158q18 -246 32 -523t24 -559q-10 -40 -41 -58t-67 -19t-67 11t-39 32zM245 1562q-9 34 8 65t49 54t58 23q52 0 78 -38t26 -78q0 -30 -16 -50 t-39 -31t-50 -12t-49 9q-56 24 -65 58z" />
<glyph unicode="&#xf0;" horiz-adv-x="1484" d="M124 506q-12 78 38 142q98 100 211 134t238 29t264 -35t291 -60q-4 46 -29 123t-57 158t-66 151t-56 104l-198 -112l-104 164l170 86q-58 94 -138 153t-160 89q0 46 36 72t68 32q58 -28 108 -55t96 -57t93 -68t99 -88l182 130l104 -124l-174 -128q52 -112 107 -242 t94 -263t50 -263t-25 -239t-130 -191t-264 -120q-106 -24 -221 -5t-221 67t-195 116t-144 145t-67 155zM328 560q0 -114 53 -187t138 -116t189 -59t206 -16q74 4 127 35t85 79t40 109t-8 125q-106 48 -234 85t-248 49t-215 -10t-133 -94z" />
<glyph unicode="&#xf1;" horiz-adv-x="1280" d="M30 1162q74 44 111 34t53 -51t20 -100t12 -113q206 150 356 215t253 65t166 -56t99 -151t50 -218t18 -256t5 -267t11 -250q-26 -24 -66 -27t-74 2t-52 13t0 6q-6 52 -8 131t-2 170v188t-2 185t-9 160t-21 116q-16 38 -59 55t-105 14t-135 -24t-148 -57t-146 -87 t-125 -113l-16 -724q-6 -16 -28 -24t-51 -8t-57 8t-46 28zM150 1414q38 120 113 212t159 126q34 14 65 2t62 -37t60 -58t60 -63t64 -50t69 -20q56 0 87 17t57 50t57 81t87 108q16 0 32 -27t16 -47q10 -56 -12 -110t-65 -98t-102 -74t-121 -39t-121 7t-105 66q-50 44 -88 74 t-77 27t-86 -48t-119 -151q-8 0 -22 2t-28 8t-26 16t-16 26z" />
<glyph unicode="&#xf2;" horiz-adv-x="1354" d="M42 474q0 164 58 297t152 229t210 152t234 68q132 18 248 -23t200 -124t131 -201t41 -256q-18 -164 -86 -281t-173 -192t-242 -110t-293 -35q-236 0 -358 110t-122 366zM214 414q8 -120 79 -181t174 -73t222 19t221 96t172 158t74 205q2 52 -14 121t-59 133t-118 114 t-191 64q-42 -2 -102 -15t-125 -43t-128 -80t-111 -122t-75 -170t-19 -226zM559 1578q3 24 15 37t31 10t45 -33l168 -164l-42 -108q-64 44 -102 72t-60 50t-34 41t-20 45q-4 26 -1 50z" />
<glyph unicode="&#xf3;" horiz-adv-x="1372" d="M42 474q0 164 58 297t152 229t210 152t234 68q132 18 248 -23t200 -124t131 -201t41 -256q-18 -164 -86 -281t-173 -192t-242 -110t-293 -35q-236 0 -358 110t-122 366zM214 414q8 -120 79 -181t174 -73t222 19t221 96t172 158t74 205q2 52 -14 121t-59 133t-118 114 t-191 64q-42 -2 -102 -15t-125 -43t-128 -80t-111 -122t-75 -170t-19 -226zM604 1386l172 196q26 32 50 42t40 3t26 -26t10 -41q-6 -24 -15 -43t-31 -45t-64 -63t-110 -93z" />
<glyph unicode="&#xf4;" horiz-adv-x="1372" d="M42 474q0 164 58 297t152 229t210 152t234 68q132 18 248 -23t200 -124t131 -201t41 -256q-18 -164 -86 -281t-173 -192t-242 -110t-293 -35q-236 0 -358 110t-122 366zM214 414q8 -120 79 -181t174 -73t222 19t221 96t172 158t74 205q2 52 -14 121t-59 133t-118 114 t-191 64q-42 -2 -102 -15t-125 -43t-128 -80t-111 -122t-75 -170t-19 -226zM354 1364q0 20 22 53t56 71t76 78t82 73t74 55t52 24l336 -282q16 -30 15 -62t-14 -55t-37 -31t-56 10l-262 238q-50 -38 -85 -71t-61 -64t-48 -62t-46 -65q-46 0 -75 13t-29 77z" />
<glyph unicode="&#xf5;" horiz-adv-x="1380" d="M42 474q0 164 58 297t152 229t210 152t234 68q132 18 248 -23t200 -124t131 -201t41 -256q-18 -164 -86 -281t-173 -192t-242 -110t-293 -35q-236 0 -358 110t-122 366zM196 1346q38 120 113 212t159 126q34 14 65 2t62 -37t60 -58t60 -63t64 -50t69 -20q56 0 87 17 t57 50t57 81t87 108q16 0 32 -27t16 -47q10 -56 -12 -110t-65 -98t-102 -74t-121 -39t-121 7t-105 66q-50 44 -88 74t-77 27t-86 -48t-119 -151q-8 0 -22 2t-28 8t-26 16t-16 26zM214 414q8 -120 79 -181t174 -73t222 19t221 96t172 158t74 205q2 52 -14 121t-59 133 t-118 114t-191 64q-42 -2 -102 -15t-125 -43t-128 -80t-111 -122t-75 -170t-19 -226z" />
<glyph unicode="&#xf6;" horiz-adv-x="1380" d="M42 474q0 164 58 297t152 229t210 152t234 68q132 18 248 -23t200 -124t131 -201t41 -256q-18 -164 -86 -281t-173 -192t-242 -110t-293 -35q-236 0 -358 110t-122 366zM214 414q8 -120 79 -181t174 -73t222 19t221 96t172 158t74 205q2 52 -14 121t-59 133t-118 114 t-191 64q-42 -2 -102 -15t-125 -43t-128 -80t-111 -122t-75 -170t-19 -226zM489 1448q-9 34 8 65t49 54t58 23q52 0 78 -38t26 -78q0 -30 -16 -50t-39 -31t-50 -12t-49 9q-56 24 -65 58zM799 1460q-9 34 8 65t49 54t58 23q52 0 78 -38t26 -78q0 -30 -16 -50t-39 -31t-50 -12 t-49 9q-56 24 -65 58z" />
<glyph unicode="&#xf7;" horiz-adv-x="880" d="M144 604q0 34 29 47t59 17q114 16 223 35t227 31q50 0 85 -17t46 -40t-3 -48t-60 -39l-480 -50q-16 0 -38 2t-41 9t-33 19t-14 34zM311 851q-3 21 12 42t39 37t46 18q78 -10 104 -46t13 -66t-61 -42t-118 26q-32 10 -35 31zM426 342q0 38 34 72t72 34q48 0 69 -28t20 -60 t-23 -58t-64 -24q-16 0 -34 3t-35 10t-28 20t-11 31z" />
<glyph unicode="&#xf8;" horiz-adv-x="1346" d="M42 474q0 164 58 297t152 229t210 152t234 68q132 18 248 -23t200 -124t131 -201t41 -256q-18 -164 -86 -281t-173 -192t-242 -110t-293 -35q-236 0 -358 110t-122 366zM200 23q3 13 42.5 74t102.5 152.5t143 205t163.5 230.5t163 229t144.5 202t106.5 147t48.5 65 q8 -5 25.5 -6.5t32 -8.5t17 -26t-20.5 -54q-40 -68 -107 -175t-147.5 -232t-170 -259t-177 -256t-166.5 -220.5t-141 -154.5q-16 0 -27 11t-18 25.5t-10.5 29t-3.5 21.5zM214 414q8 -120 79 -181t174 -73t222 19t221 96t172 158t74 205q2 52 -14 121t-59 133t-118 114 t-191 64q-42 -2 -102 -15t-125 -43t-128 -80t-111 -122t-75 -170t-19 -226z" />
<glyph unicode="&#xf9;" horiz-adv-x="1300" d="M74 451q-2 77 3 164t16 178t27 170t36 140t44 91q62 34 104 9t36 -83q-6 -52 -28 -135t-43 -187t-30 -221t13 -235q18 -72 73 -111t131 -50t163 2t169 44t150 76t106 97q4 74 3 167t-4 195t-4 210t3 214q38 46 91 37t81 -51l58 -1152q-18 -18 -41 -32t-47 -19t-46 2 t-38 31l-32 190q-32 -28 -112 -69t-183 -74t-217 -48t-212 9t-170 97t-90 215q-8 52 -10 129zM525 1664q3 24 15 37t31 10t45 -33l168 -164l-42 -108q-64 44 -102 72t-60 50t-34 41t-20 45q-4 26 -1 50z" />
<glyph unicode="&#xfa;" horiz-adv-x="1300" d="M56 501q-2 77 3 164t16 178t27 170t36 140t44 91q62 34 104 9t36 -83q-6 -52 -28 -135t-43 -187t-30 -221t13 -235q18 -72 73 -111t131 -50t163 2t169 44t150 76t106 97q4 74 3 167t-4 195t-4 210t3 214q38 46 91 37t81 -51l58 -1152q-18 -18 -41 -32t-47 -19t-46 2 t-38 31l-32 190q-32 -28 -112 -69t-183 -74t-217 -48t-212 9t-170 97t-90 215q-8 52 -10 129zM622 1378l172 196q26 32 50 42t40 3t26 -26t10 -41q-6 -24 -15 -43t-31 -45t-64 -63t-110 -93z" />
<glyph unicode="&#xfb;" horiz-adv-x="1300" d="M38 433q-2 77 3 164t16 178t27 170t36 140t44 91q62 34 104 9t36 -83q-6 -52 -28 -135t-43 -187t-30 -221t13 -235q18 -72 73 -111t131 -50t163 2t169 44t150 76t106 97q4 74 3 167t-4 195t-4 210t3 214q38 46 91 37t81 -51l58 -1152q-18 -18 -41 -32t-47 -19t-46 2 t-38 31l-32 190q-32 -28 -112 -69t-183 -74t-217 -48t-212 9t-170 97t-90 215q-8 52 -10 129zM284 1364q0 20 22 53t56 71t76 78t82 73t74 55t52 24l336 -282q16 -30 15 -62t-14 -55t-37 -31t-56 10l-262 238q-50 -38 -85 -71t-61 -64t-48 -62t-46 -65q-46 0 -75 13t-29 77z " />
<glyph unicode="&#xfc;" horiz-adv-x="1300" d="M82 465q-2 77 3 164t16 178t27 170t36 140t44 91q62 34 104 9t36 -83q-6 -52 -28 -135t-43 -187t-30 -221t13 -235q18 -72 73 -111t131 -50t163 2t169 44t150 76t106 97q4 74 3 167t-4 195t-4 210t3 214q38 46 91 37t81 -51l58 -1152q-18 -18 -41 -32t-47 -19t-46 2 t-38 31l-32 190q-32 -28 -112 -69t-183 -74t-217 -48t-212 9t-170 97t-90 215q-8 52 -10 129zM505 1558q-9 34 8 65t49 54t58 23q52 0 78 -38t26 -78q0 -30 -16 -50t-39 -31t-50 -12t-49 9q-56 24 -65 58zM815 1570q-9 34 8 65t49 54t58 23q52 0 78 -38t26 -78 q0 -30 -16 -50t-39 -31t-50 -12t-49 9q-56 24 -65 58z" />
<glyph unicode="&#xfd;" horiz-adv-x="1404" d="M-2 1040q-6 26 5 50t31 44t46 34t48 18l670 -974l428 988q4 10 28 13t51 -4t48 -29t17 -62l-764 -2028q-20 -42 -56 -54t-70 -4t-56 31t-16 49l310 862zM552 1316l172 196q26 32 50 42t40 3t26 -26t10 -41q-6 -24 -15 -43t-31 -45t-64 -63t-110 -93z" />
<glyph unicode="&#xfe;" horiz-adv-x="1328" d="M60 1454q48 20 80 23t52 -35t30 -130t16 -262q280 86 480 98t327 -27t183 -119t47 -179t-80 -206t-198 -201t-307 -163t-408 -93q4 -86 1 -174t9 -182q12 -92 -36 -131t-132 -29zM250 630l12 -302q278 62 455 137t271 150t114 146t-15 125t-118 87t-193 33 q-78 0 -172 -18t-175 -61t-133 -116t-46 -181z" />
<glyph unicode="&#xff;" horiz-adv-x="1404" d="M-2 1040q-6 26 5 50t31 44t46 34t48 18l670 -974l428 988q4 10 28 13t51 -4t48 -29t17 -62l-764 -2028q-20 -42 -56 -54t-70 -4t-56 31t-16 49l310 862zM349 1406q-9 34 8 65t49 54t58 23q52 0 78 -38t26 -78q0 -30 -16 -50t-39 -31t-50 -12t-49 9q-56 24 -65 58z M659 1418q-9 34 8 65t49 54t58 23q52 0 78 -38t26 -78q0 -30 -16 -50t-39 -31t-50 -12t-49 9q-56 24 -65 58z" />
<glyph unicode="&#x152;" horiz-adv-x="2162" d="M56 748q-10 168 39 335t144 302t231 223t300 98q156 -18 328 -14t328 10t281 4t185 -32l-6 -138q-68 -10 -186 -12t-252 -3t-268 -8t-234 -29q-18 -82 -26 -137t-11 -96t-2 -77t4 -77t6 -95t3 -132q128 0 249 13t240 30t239 30t246 13v-136l-956 -120l14 -508 q188 0 340 11t289 23t271 23t284 11q0 -22 -12 -57t-31 -65t-43 -47t-48 1q-138 -16 -305 -29t-336 -23t-328 -15t-279 -1q-150 10 -278 58t-221 137t-146 220t-53 309zM260 788q0 -534 486 -586l8 1326q-110 -20 -204 -97t-161 -184t-102 -228t-27 -231z" />
<glyph unicode="&#x153;" horiz-adv-x="1958" d="M42 474q0 136 51 257t136 217t192 164t219 100t219 22t191 -68q76 46 159 70t177 22q68 2 156 -30t162 -89t119 -132t29 -159q2 -42 -42 -69t-117 -43t-170 -23t-204 -11t-217 -7t-208 -11q-56 -154 -33 -253t98 -151t186 -61t231 15t236 77t200 127q12 0 31 -8t37 -21 t31 -28t13 -27q-38 -68 -111 -125t-166 -99t-199 -66t-212 -27t-205 17t-177 70q-20 -12 -54 -33t-77 -42t-95 -36t-106 -15q-236 0 -358 110t-122 366zM214 414q-2 -104 49 -161t129 -75t170 -2t174 58q-20 28 -35 62t-25 74q-12 94 0 189t44 185t82 170t114 146 q-40 22 -107 20t-144 -29t-156 -80t-144 -132t-107 -185t-44 -240zM1016 880l616 24q-10 76 -60 114t-118 49t-144 -3t-141 -42t-108 -66t-45 -76z" />
<glyph unicode="&#x178;" horiz-adv-x="1368" d="M40 1610q6 16 24 25t39 11t29 2q52 0 105 -26t131 -99t193 -203t289 -340q76 222 129 363t94 224t75 117t74 40q24 0 47 -5t33 -37q-52 -110 -99 -243t-93 -279t-92 -301t-96 -307t-107 -298t-121 -276q-16 -12 -47 -13t-60 9t-48 30t-9 52q10 16 27 67t38 120t44 151 t44 161t40 147t31 112l-696 752q-24 28 -18 44zM389 1818q-9 34 8 65t49 54t58 23q52 0 78 -38t26 -78q0 -30 -16 -50t-39 -31t-50 -12t-49 9q-56 24 -65 58zM699 1830q-9 34 8 65t49 54t58 23q52 0 78 -38t26 -78q0 -30 -16 -50t-39 -31t-50 -12t-49 9q-56 24 -65 58z" />
<glyph unicode="&#x2c6;" horiz-adv-x="786" d="M44 1364q0 20 22 53t56 71t76 78t82 73t74 55t52 24l336 -282q16 -30 15 -62t-14 -55t-37 -31t-56 10l-262 238q-50 -38 -85 -71t-61 -64t-48 -62t-46 -65q-46 0 -75 13t-29 77z" />
<glyph unicode="&#x2dc;" horiz-adv-x="1138" d="M64 1268q38 120 113 212t159 126q34 14 65 2t62 -37t60 -58t60 -63t64 -50t69 -20q56 0 87 17t57 50t57 81t87 108q16 0 32 -27t16 -47q10 -56 -12 -110t-65 -98t-102 -74t-121 -39t-121 7t-105 66q-50 44 -88 74t-77 27t-86 -48t-119 -151q-8 0 -22 2t-28 8t-26 16 t-16 26z" />
<glyph unicode="&#x2000;" horiz-adv-x="1134" />
<glyph unicode="&#x2001;" horiz-adv-x="2269" />
<glyph unicode="&#x2002;" horiz-adv-x="1134" />
<glyph unicode="&#x2003;" horiz-adv-x="2269" />
<glyph unicode="&#x2004;" horiz-adv-x="756" />
<glyph unicode="&#x2005;" horiz-adv-x="567" />
<glyph unicode="&#x2006;" horiz-adv-x="378" />
<glyph unicode="&#x2007;" horiz-adv-x="378" />
<glyph unicode="&#x2008;" horiz-adv-x="283" />
<glyph unicode="&#x2009;" horiz-adv-x="453" />
<glyph unicode="&#x200a;" horiz-adv-x="126" />
<glyph unicode="&#x2010;" horiz-adv-x="794" d="M74 604q0 34 29 47t59 17q114 16 223 35t227 31q50 0 85 -17t46 -40t-3 -48t-60 -39l-480 -50q-16 0 -38 2t-41 9t-33 19t-14 34z" />
<glyph unicode="&#x2011;" horiz-adv-x="794" d="M74 604q0 34 29 47t59 17q114 16 223 35t227 31q50 0 85 -17t46 -40t-3 -48t-60 -39l-480 -50q-16 0 -38 2t-41 9t-33 19t-14 34z" />
<glyph unicode="&#x2012;" horiz-adv-x="794" d="M74 604q0 34 29 47t59 17q114 16 223 35t227 31q50 0 85 -17t46 -40t-3 -48t-60 -39l-480 -50q-16 0 -38 2t-41 9t-33 19t-14 34z" />
<glyph unicode="&#x2013;" horiz-adv-x="794" d="M74 604q0 34 29 47t59 17q114 16 223 35t227 31q50 0 85 -17t46 -40t-3 -48t-60 -39l-480 -50q-16 0 -38 2t-41 9t-33 19t-14 34z" />
<glyph unicode="&#x2014;" horiz-adv-x="1052" d="M74 604q0 34 29 47t59 17q56 8 146 16t186 17t187 17t149 14q50 0 84 -17t46 -40t-2 -48t-60 -39l-698 -48q-16 0 -38 2t-41 9t-33 19t-14 34z" />
<glyph unicode="&#x2018;" horiz-adv-x="414" d="M68 1096l140 440q54 18 80 4t31 -51t-6 -88t-31 -106t-45 -106t-49 -85z" />
<glyph unicode="&#x2019;" horiz-adv-x="414" d="M68 1096l140 440q54 18 80 4t31 -51t-6 -88t-31 -106t-45 -106t-49 -85z" />
<glyph unicode="&#x201a;" horiz-adv-x="414" d="M88 26l140 440q54 18 80 4t31 -51t-6 -88t-31 -106t-45 -106t-49 -85z" />
<glyph unicode="&#x201c;" horiz-adv-x="606" d="M136 1451q0 35 1 59t1 26q0 32 -2 83t4 105t24 100t60 66l42 -40v-498l42 -84q-4 -4 -16 -11t-25 -14t-25 -12t-18 -5q-28 0 -44 22t-26 56t-14 73t-4 74zM366 1637q-2 51 4 105t25 100t59 66l44 -40v-498l40 -84q-4 -4 -15 -11t-24 -13t-26 -11t-19 -5q-26 0 -43 22 t-26 56t-13 73t-5 73t0 58t1 26q0 32 -2 83z" />
<glyph unicode="&#x201d;" horiz-adv-x="606" d="M136 1451q0 35 1 59t1 26q0 32 -2 83t4 105t24 100t60 66l42 -40v-498l42 -84q-4 -4 -16 -11t-25 -14t-25 -12t-18 -5q-28 0 -44 22t-26 56t-14 73t-4 74zM366 1637q-2 51 4 105t25 100t59 66l44 -40v-498l40 -84q-4 -4 -15 -11t-24 -13t-26 -11t-19 -5q-26 0 -43 22 t-26 56t-13 73t-5 73t0 58t1 26q0 32 -2 83z" />
<glyph unicode="&#x201e;" horiz-adv-x="718" d="M214 313q0 35 1 59t1 26q0 32 -2 83t4 104t24 99t60 68l42 -42v-498l42 -82q-4 -6 -16 -13t-25 -13t-25 -11t-18 -5q-26 0 -43 22t-27 56t-14 73t-4 74zM464 471q-2 51 4 104t25 99t59 68l44 -42v-498l40 -84q-4 -4 -15 -11t-24 -13t-26 -11t-19 -5q-26 0 -43 22t-26 56 t-13 73t-5 73t0 58t1 28q0 32 -2 83z" />
<glyph unicode="&#x2022;" horiz-adv-x="492" d="M82 642q20 94 71 129t107 28t101 -51t51 -110q0 -46 -9 -76t-28 -47t-48 -23t-67 -6q-24 0 -54 10t-58 30t-47 49t-19 67z" />
<glyph unicode="&#x2026;" horiz-adv-x="1082" d="M58 29q-6 29 12 60t50 56t60 21q52 0 71 -22t19 -62q0 -30 -15 -47t-38 -25t-51 -10t-52 -2q-50 2 -56 31zM419 28q-7 28 10 60t50 57t61 21q52 0 71 -22t19 -62q0 -30 -15 -47t-38 -25t-50 -10t-51 -2q-50 2 -57 30zM778 29q-6 29 12 60t51 56t61 21q52 0 71 -22t19 -62 q0 -30 -15 -47t-38 -25t-51 -10t-52 -2q-52 2 -58 31z" />
<glyph unicode="&#x202f;" horiz-adv-x="453" />
<glyph unicode="&#x2039;" horiz-adv-x="1218" d="M210 572q80 62 187 148t218 172t213 161t174 115q18 -2 30 -18t19 -38t6 -45t-9 -37l-588 -448q38 -18 107 -51t155 -75t179 -92t177 -106q-4 -4 -11 -21t-16 -36t-17 -36t-12 -17q-48 30 -119 58t-153 58t-167 63t-159 70t-131 80t-83 95z" />
<glyph unicode="&#x203a;" horiz-adv-x="1208" d="M124 990l126 122q82 -58 155 -92t140 -54t131 -33t128 -30t128 -46t134 -79q-64 -78 -163 -157t-208 -161t-215 -167t-186 -173q-84 32 -110 67t-11 71t63 74t112 78t136 81t135 82t109 84t58 85z" />
<glyph unicode="&#x205f;" horiz-adv-x="567" />
<glyph unicode="&#x20ac;" horiz-adv-x="2036" d="M72 808l50 90q4 4 59 10t139 16q44 156 133 296t210 247t269 170t314 63q82 0 137 -9t89 -38t49 -83t15 -144q-172 96 -339 90t-306 -82t-240 -206t-139 -282q96 10 193 22t175 24q40 12 61 0t25 -36t-7 -51t-35 -43l-440 -60q-4 -34 -4 -69t4 -69v-26t2 -24q54 6 106 12 t109 14t123 19t150 29q58 0 75 -37t7 -89q-86 0 -158 -9t-137 -21t-125 -26t-122 -26q58 -162 204 -240t336 -78q148 12 253 23t191 31t164 56t172 96q18 0 37 -2t35 -8t26 -19t10 -37q-198 -176 -440 -245t-538 -59q-110 0 -215 31t-193 90t-154 142t-98 185q-36 -4 -74 -6 t-82 -2q-30 0 -45 18t-15 68q0 10 16 26t26 16q42 6 78 13t70 11v34q0 38 3 76t7 76l-92 -12q-12 0 -31 -1t-39 2t-35 12t-19 31z" />
<glyph unicode="&#x2122;" horiz-adv-x="3176" d="M58 1536q0 34 22 67t54 33q150 -6 302 -19t303 -22t303 -12t302 9q16 68 52 97t126 29q86 0 156 -62t128 -158t106 -213t90 -228t80 -203t76 -136l500 870q68 62 120 54t91 -68t68 -162t50 -228t37 -266t30 -276t29 -256t35 -208q14 -84 -13 -123t-67 -39t-80 32t-52 88 q-4 36 -13 111t-21 169t-25 198t-26 198t-23 169t-14 111q0 52 -3 94t-20 51t-53 -25t-101 -134t-164 -278t-241 -456q-14 -28 -39 -37t-54 8t-60 64t-55 131l-438 928q-10 -2 -21 -4t-21 -4q-14 -48 -25 -118t-21 -150t-18 -166t-15 -168t-12 -154t-9 -122 q-12 -64 -10 -125t5 -114t3 -97t-15 -73t-50 -43t-101 -8q-42 0 -64 21t-18 65l20 165t26 215t30 240t30 239t27 213t21 164q-52 0 -104 2t-107 2t-116 -3t-133 -13q-4 -64 -13 -157t-18 -200t-19 -223t-16 -227t-8 -212t6 -179l-234 -18l78 1234l-534 32q-10 0 -18 9 t-13 23t-8 28t-3 24z" />
<glyph unicode="&#x25fc;" horiz-adv-x="1200" d="M0 0v1200h1200v-1200h-1200z" />
<glyph unicode="&#xfb01;" horiz-adv-x="1752" d="M4 648l410 58q-36 234 -38 400t19 279t63 180t93 102t109 46t112 13q66 2 138 -14t142 -47t132 -74t110 -93t76 -103t28 -105q0 -6 -10 -18t-22 -25t-23 -25t-13 -16q-44 58 -106 125t-136 123t-156 93t-164 37q-74 -20 -120 -75t-70 -131t-29 -165t3 -175t27 -162 t43 -128q108 0 201 10t185 23t189 25t213 14q6 0 9 -15t3 -39t1 -52t5 -54l-766 -90l46 -554l-204 8q0 132 -13 259t-35 257l-356 -48q-16 0 -33 15t-31 38t-23 51t-9 52zM1364 1440q0 46 26 66t62 23t72 -7t52 -24q18 -66 -6 -96t-63 -33t-81 17t-62 54zM1438 -16v1116h158 q18 -246 32 -523t24 -559q-10 -40 -41 -58t-67 -19t-67 11t-39 32z" />
<glyph unicode="&#xfb02;" horiz-adv-x="1794" d="M4 648l410 58q-36 234 -38 400t19 279t63 180t93 102t109 46t112 13q66 2 138 -14t142 -47t132 -74t110 -93t76 -103t28 -105q0 -6 -10 -18t-22 -25t-23 -25t-13 -16q-44 58 -106 125t-136 123t-156 93t-164 37q-74 -20 -120 -75t-70 -131t-29 -165t3 -175t27 -162 t43 -128q108 0 201 10t185 23t189 25t213 14q6 0 9 -15t3 -39t1 -52t5 -54l-766 -90l46 -554l-204 8q0 132 -13 259t-35 257l-356 -48q-16 0 -33 15t-31 38t-23 51t-9 52zM1408 1676q14 32 39 49t51 22t49 -4t37 -31l46 -1604q0 -36 -22 -52t-50 -17t-58 11t-46 36z" />
</font>
</defs>
</svg>
